<?xml version="1.0" standalone="no"?>
<!DOCTYPE svg PUBLIC "-//W3C//DTD SVG 20010904//EN"
 "http://www.w3.org/TR/2001/REC-SVG-20010904/DTD/svg10.dtd">
<svg version="1.0" xmlns="http://www.w3.org/2000/svg"
 width="256.000000pt" height="256.000000pt" viewBox="0 0 256.000000 256.000000"
 preserveAspectRatio="xMidYMid meet">

<g transform="translate(0.000000,256.000000) scale(0.100000,-0.100000)"
fill="#000000" stroke="none">
<path d="M470 2544 c-218 -46 -409 -239 -455 -459 -22 -104 -22 -1506 0 -1610
47 -223 237 -413 460 -460 103 -22 1507 -22 1608 0 226 48 414 235 462 461 22
101 22 1506 0 1607 -48 227 -235 415 -460 462 -100 21 -1516 21 -1615 -1z
m212 -411 c8 -10 50 -79 93 -154 l78 -137 79 29 c215 79 476 79 699 0 l79 -28
87 151 c89 153 111 174 136 135 7 -11 -8 -45 -62 -137 -39 -68 -77 -136 -86
-151 l-14 -29 65 -42 c232 -150 395 -409 439 -697 l7 -43 -1000 0 -1001 0 6
38 c45 295 203 548 436 700 38 24 66 49 64 55 -3 7 -41 75 -85 151 -65 111
-79 143 -71 158 12 23 32 23 51 1z m1239 -1293 c23 -13 25 -52 4 -70 -12 -10
-21 -10 -40 -2 -30 14 -34 56 -7 71 21 13 20 13 43 1z m-661 -215 l0 -215 -30
0 c-18 0 -33 6 -36 15 -5 13 -8 13 -27 0 -28 -20 -100 -19 -138 1 -34 17 -69
82 -69 129 0 49 35 112 71 131 42 21 101 22 134 0 l25 -16 0 85 0 85 35 0 35
0 0 -215z m1020 0 l0 -215 -30 0 c-20 0 -30 5 -30 15 0 8 -4 15 -9 15 -5 0
-14 -7 -21 -15 -8 -10 -31 -15 -66 -15 -47 0 -59 4 -90 32 -43 40 -58 94 -42
156 22 88 123 133 195 86 12 -8 25 -14 28 -14 3 0 5 38 5 85 l0 85 30 0 30 0
0 -215z m-1792 59 c19 -13 22 -13 22 1 0 11 10 15 35 15 l35 0 0 -145 0 -145
-30 0 c-18 0 -33 6 -36 15 -5 13 -8 13 -27 0 -28 -19 -100 -19 -137 0 -17 9
-39 33 -50 55 -69 134 65 280 188 204z m374 4 c36 -18 48 -62 48 -173 l0 -105
-30 0 -30 0 0 95 c0 88 -2 98 -25 120 -30 31 -47 31 -82 1 -26 -23 -28 -29
-31 -120 l-4 -96 -29 0 -29 0 0 145 0 145 30 0 c21 0 30 -5 30 -16 0 -13 3
-14 14 -5 34 29 93 32 138 9z m885 -6 c86 -46 95 -173 18 -241 -31 -27 -43
-31 -93 -31 -96 0 -155 55 -155 145 0 118 121 185 230 127z m-357 3 c0 -8 4
-15 9 -15 5 0 14 7 21 15 7 8 25 15 41 15 26 0 29 -4 29 -30 0 -24 -4 -30 -21
-30 -57 0 -79 -44 -79 -156 l0 -74 -30 0 -30 0 0 145 0 145 30 0 c20 0 30 -5
30 -15z m540 -130 l0 -145 -30 0 -30 0 0 145 0 145 30 0 30 0 0 -145z"/>
<path d="M785 1468 c-52 -28 -62 -92 -20 -133 34 -35 78 -33 117 5 25 26 29
36 24 63 -11 60 -72 92 -121 65z"/>
<path d="M1685 1455 c-36 -35 -35 -96 1 -124 58 -45 134 -11 134 60 0 50 -35
89 -80 89 -19 0 -40 -9 -55 -25z"/>
<path d="M1059 621 c-42 -43 -41 -99 3 -136 25 -21 38 -25 62 -21 82 16 99
133 25 171 -40 21 -57 19 -90 -14z"/>
<path d="M2104 640 c-59 -24 -72 -104 -25 -151 38 -38 74 -38 112 0 68 68 -1
187 -87 151z"/>
<path d="M379 621 c-41 -41 -40 -91 1 -133 26 -25 36 -29 63 -24 83 16 101
133 26 171 -40 21 -57 19 -90 -14z"/>
<path d="M1634 640 c-55 -22 -71 -99 -30 -146 51 -60 146 -20 146 61 0 61 -64
107 -116 85z"/>
</g>
</svg>
