<?xml version="1.0" standalone="no"?>
<!DOCTYPE svg PUBLIC "-//W3C//DTD SVG 20010904//EN"
 "http://www.w3.org/TR/2001/REC-SVG-20010904/DTD/svg10.dtd">
<svg version="1.0" xmlns="http://www.w3.org/2000/svg"
 width="256.000000pt" height="256.000000pt" viewBox="0 0 256.000000 256.000000"
 preserveAspectRatio="xMidYMid meet">

<g transform="translate(0.000000,256.000000) scale(0.100000,-0.100000)"
fill="#000000" stroke="none">
<path d="M470 2544 c-218 -46 -409 -239 -455 -459 -22 -104 -22 -1506 0 -1610
47 -223 237 -413 460 -460 103 -22 1507 -22 1608 0 226 48 414 235 462 461 22
101 22 1506 0 1607 -48 227 -235 415 -460 462 -100 21 -1516 21 -1615 -1z
m1432 -315 c165 -35 296 -170 328 -338 11 -59 14 -666 3 -798 l-6 -83 -132 0
-132 0 3 32 3 33 -8 -35 c-16 -59 -51 -80 -132 -80 -38 0 -69 -3 -69 -8 0 -4
6 -16 14 -27 7 -11 28 -48 45 -82 31 -59 32 -62 17 -97 -10 -23 -27 -42 -49
-52 -31 -15 -37 -15 -68 0 -28 13 -53 49 -148 211 -63 107 -119 195 -123 195
-5 0 -7 4 -4 8 3 5 -2 9 -10 9 -11 0 -9 -6 6 -22 29 -30 44 -89 30 -115 -10
-20 -20 -20 -419 -20 l-408 0 -27 27 c-23 23 -27 35 -24 69 2 23 0 40 -4 37
-5 -2 -8 -22 -8 -44 l0 -39 -124 0 -123 0 -6 83 c-11 132 -8 739 3 798 31 164
155 295 315 335 68 17 1179 19 1257 3z m-1002 -1301 c30 -15 46 -30 48 -45 4
-24 -66 -149 -99 -179 -45 -40 -128 -9 -144 54 -8 32 44 142 82 172 33 26 58
25 113 -2z"/>
<path d="M1120 1148 c0 -5 51 -7 113 -6 115 1 101 5 -36 10 -42 2 -77 0 -77
-4z"/>
<path d="M713 1143 c31 -2 83 -2 115 0 31 2 5 3 -58 3 -63 0 -89 -1 -57 -3z"/>
<path d="M1718 1143 c34 -2 88 -2 120 0 31 2 3 3 -63 3 -66 0 -92 -1 -57 -3z"/>
</g>
</svg>
