<svg id="svg" version="1.1" xmlns="http://www.w3.org/2000/svg" xmlns:xlink="http://www.w3.org/1999/xlink" width="400" height="400" viewBox="0, 0, 400,400"><g id="svgg"><path id="path0" d="M107.200 51.002 C 105.990 51.289,103.920 51.703,102.600 51.920 C 78.383 55.916,56.311 78.011,51.973 102.600 C 51.740 103.920,51.291 106.310,50.975 107.911 C 50.330 111.177,50.152 284.439,50.789 288.800 C 50.966 290.010,51.334 292.530,51.607 294.400 C 51.880 296.270,52.440 298.836,52.852 300.102 C 53.263 301.367,53.606 302.807,53.614 303.302 C 53.621 303.796,53.975 304.920,54.400 305.800 C 54.825 306.680,55.179 307.783,55.186 308.251 C 55.194 308.719,55.452 309.311,55.761 309.567 C 56.069 309.823,56.443 310.520,56.592 311.116 C 56.741 311.712,57.097 312.470,57.384 312.800 C 57.671 313.130,58.041 313.850,58.208 314.400 C 58.374 314.950,58.845 315.829,59.255 316.354 C 59.665 316.879,60.000 317.471,60.000 317.671 C 60.000 317.870,60.185 318.251,60.411 318.517 C 60.636 318.783,61.395 319.900,62.096 321.000 C 62.797 322.100,63.486 323.090,63.628 323.200 C 63.770 323.310,64.844 324.570,66.016 326.000 C 68.613 329.170,71.189 331.649,75.400 335.033 C 77.160 336.447,78.818 337.783,79.085 338.003 C 79.352 338.223,80.027 338.612,80.585 338.866 C 81.143 339.120,81.600 339.467,81.600 339.637 C 81.600 339.807,82.005 340.070,82.500 340.220 C 82.995 340.371,83.670 340.721,84.000 340.997 C 84.330 341.273,85.275 341.716,86.100 341.980 C 86.925 342.245,87.600 342.600,87.600 342.768 C 87.600 342.936,88.320 343.289,89.200 343.553 C 90.080 343.816,90.800 344.185,90.800 344.372 C 90.800 344.558,91.469 344.836,92.286 344.990 C 93.104 345.143,94.231 345.506,94.791 345.796 C 95.352 346.085,96.708 346.453,97.805 346.612 C 98.902 346.772,100.160 347.091,100.600 347.323 C 101.040 347.554,103.020 347.970,105.000 348.247 C 106.980 348.525,109.770 348.939,111.200 349.168 C 114.563 349.706,286.106 349.718,289.000 349.181 C 290.100 348.976,292.620 348.609,294.600 348.365 C 296.580 348.120,298.560 347.728,299.000 347.493 C 299.440 347.259,300.880 346.841,302.200 346.565 C 304.877 346.005,308.284 344.937,309.200 344.370 C 309.530 344.165,310.250 343.819,310.800 343.599 C 311.350 343.380,312.070 343.020,312.400 342.799 C 312.730 342.579,313.450 342.215,314.000 341.992 C 315.622 341.334,318.066 339.943,320.096 338.525 C 321.139 337.796,322.134 337.200,322.307 337.200 C 322.480 337.200,322.913 336.885,323.268 336.500 C 323.622 336.115,324.787 335.080,325.856 334.200 C 326.925 333.320,328.880 331.520,330.200 330.200 C 331.520 328.880,333.320 326.925,334.200 325.856 C 335.080 324.787,336.115 323.622,336.500 323.268 C 336.885 322.913,337.200 322.496,337.200 322.342 C 337.200 322.189,337.975 320.906,338.923 319.493 C 342.265 314.510,345.656 307.017,346.569 302.600 C 346.842 301.280,347.253 299.840,347.482 299.400 C 347.712 298.960,348.023 297.520,348.175 296.200 C 348.326 294.880,348.712 292.450,349.034 290.800 C 349.852 286.594,349.700 110.128,348.874 106.000 C 347.601 99.634,346.513 95.322,345.782 93.740 C 345.462 93.046,345.200 92.303,345.200 92.088 C 345.200 91.872,344.487 90.279,343.616 88.548 C 342.745 86.817,341.837 84.950,341.599 84.400 C 340.895 82.775,337.563 77.618,336.400 76.354 C 336.070 75.995,335.363 75.123,334.828 74.417 C 330.815 69.113,320.870 60.787,315.756 58.448 C 315.291 58.236,313.401 57.349,311.556 56.477 C 306.385 54.034,298.662 51.611,296.000 51.598 C 295.230 51.594,293.610 51.325,292.400 51.000 C 289.303 50.169,110.701 50.170,107.200 51.002 M289.400 51.393 C 290.940 51.719,293.190 51.997,294.400 52.011 C 295.610 52.024,297.320 52.312,298.200 52.651 C 299.080 52.990,300.722 53.431,301.850 53.631 C 302.977 53.832,304.417 54.265,305.050 54.595 C 305.682 54.925,306.622 55.196,307.137 55.198 C 307.652 55.199,308.531 55.560,309.091 56.000 C 309.650 56.440,310.494 56.800,310.965 56.800 C 311.436 56.800,312.130 57.160,312.507 57.600 C 312.884 58.040,313.554 58.400,313.996 58.400 C 314.438 58.400,315.160 58.760,315.600 59.200 C 316.040 59.640,316.751 60.000,317.180 60.000 C 317.609 60.000,318.104 60.226,318.280 60.501 C 318.718 61.188,321.732 63.200,322.322 63.200 C 322.585 63.200,322.800 63.384,322.800 63.609 C 322.800 63.833,323.250 64.222,323.800 64.473 C 324.350 64.723,324.800 65.170,324.800 65.464 C 324.800 65.759,325.005 66.000,325.255 66.000 C 325.802 66.000,334.000 74.216,334.000 74.763 C 334.000 74.974,334.360 75.260,334.800 75.400 C 335.240 75.540,335.600 76.002,335.600 76.427 C 335.600 76.852,335.775 77.200,335.990 77.200 C 336.204 77.200,336.677 77.776,337.042 78.480 C 337.406 79.185,337.950 80.008,338.252 80.309 C 338.553 80.610,338.800 81.095,338.800 81.386 C 338.800 81.677,339.053 82.012,339.362 82.130 C 339.672 82.249,340.043 82.883,340.187 83.540 C 340.331 84.196,340.708 84.833,341.024 84.954 C 341.341 85.076,341.600 85.632,341.600 86.191 C 341.600 86.750,341.960 87.516,342.400 87.893 C 342.840 88.270,343.200 89.068,343.200 89.666 C 343.200 90.269,343.529 90.988,343.939 91.277 C 344.415 91.614,344.755 92.493,344.896 93.749 C 345.015 94.822,345.334 95.835,345.603 96.002 C 345.873 96.169,346.218 97.510,346.371 98.982 C 346.541 100.625,346.869 101.796,347.222 102.014 C 348.622 102.879,348.964 125.918,347.754 137.900 L 347.542 140.000 285.971 140.000 C 224.667 140.000,224.400 139.997,224.400 139.200 C 224.400 138.760,224.580 138.400,224.800 138.400 C 225.020 138.400,225.200 137.680,225.200 136.800 C 225.200 134.947,224.489 134.653,224.147 136.365 C 224.011 137.043,223.598 137.612,223.157 137.727 C 222.741 137.836,222.400 138.229,222.400 138.599 C 222.400 138.970,222.040 139.731,221.600 140.291 C 221.160 140.850,220.800 141.644,220.800 142.054 C 220.800 142.464,220.566 142.800,220.280 142.800 C 219.995 142.800,219.539 143.413,219.268 144.162 C 218.997 144.911,218.511 145.625,218.188 145.749 C 217.865 145.873,217.600 146.341,217.600 146.787 C 217.600 147.234,217.422 147.600,217.205 147.600 C 216.988 147.600,216.548 148.230,216.226 149.000 C 215.904 149.770,215.452 150.400,215.220 150.400 C 214.989 150.400,214.800 150.715,214.799 151.100 C 214.799 151.485,214.121 152.790,213.292 154.000 C 212.464 155.210,211.568 156.695,211.302 157.300 C 211.035 157.905,210.633 158.400,210.409 158.400 C 210.184 158.400,210.000 158.760,210.000 159.200 C 210.000 159.640,209.640 160.360,209.200 160.800 C 208.760 161.240,208.400 161.846,208.400 162.146 C 208.400 162.446,208.040 163.150,207.600 163.709 C 207.160 164.269,206.800 164.901,206.800 165.114 C 206.800 165.327,206.520 165.735,206.177 166.019 C 205.834 166.304,205.287 167.091,204.961 167.768 C 204.237 169.273,203.041 171.394,202.010 173.000 C 201.109 174.404,198.291 179.225,196.660 182.153 C 196.033 183.279,195.268 184.484,194.960 184.831 C 194.652 185.179,194.400 185.650,194.400 185.878 C 194.400 186.106,194.064 186.721,193.653 187.246 C 193.243 187.771,192.394 189.190,191.768 190.400 C 191.142 191.610,190.426 192.810,190.177 193.066 C 189.929 193.322,189.495 194.087,189.214 194.766 C 188.933 195.445,188.545 196.000,188.351 196.000 C 188.158 196.000,188.000 196.183,188.000 196.406 C 188.000 196.773,187.062 198.482,184.527 202.736 C 184.048 203.541,183.373 204.740,183.028 205.400 C 182.684 206.060,182.086 207.079,181.701 207.665 C 180.668 209.234,178.400 213.158,178.400 213.376 C 178.400 213.569,176.668 216.283,176.087 217.000 C 175.462 217.771,173.910 221.244,174.104 221.437 C 174.212 221.545,181.567 221.632,190.450 221.630 C 199.332 221.629,207.320 221.785,208.200 221.978 C 214.422 223.341,215.719 223.660,216.321 223.974 C 216.694 224.169,218.061 224.837,219.357 225.459 C 221.734 226.598,226.800 231.179,226.800 232.188 C 226.800 232.471,227.069 232.925,227.398 233.198 C 227.727 233.472,228.209 234.439,228.468 235.347 C 228.728 236.256,229.102 237.215,229.301 237.478 C 231.266 240.082,229.685 248.039,226.943 249.347 C 224.641 250.445,105.502 250.336,102.297 249.233 C 91.137 245.394,88.955 230.767,98.600 224.458 C 102.671 221.794,102.080 221.867,121.600 221.623 C 139.959 221.393,142.000 221.192,142.000 219.618 C 142.000 219.420,142.225 219.013,142.500 218.714 C 143.057 218.110,143.741 216.941,145.610 213.400 C 146.306 212.080,147.094 210.730,147.361 210.400 C 147.627 210.070,148.059 209.350,148.320 208.800 C 148.581 208.250,148.967 207.530,149.178 207.200 C 149.390 206.870,150.659 204.620,152.000 202.200 C 153.341 199.780,154.607 197.530,154.815 197.200 C 156.394 194.687,159.795 188.636,160.605 186.900 C 160.938 186.185,161.388 185.600,161.605 185.600 C 161.822 185.600,162.000 185.432,162.000 185.226 C 162.000 184.653,162.703 183.169,163.811 181.400 C 164.363 180.520,164.972 179.433,165.165 178.984 C 165.359 178.535,165.805 177.927,166.158 177.635 C 166.511 177.342,166.800 176.777,166.800 176.380 C 166.800 175.982,167.035 175.419,167.323 175.129 C 167.854 174.592,168.343 173.718,170.742 169.025 C 171.480 167.581,172.230 166.400,172.410 166.400 C 172.590 166.400,172.858 165.848,173.006 165.173 C 173.154 164.498,173.517 163.853,173.813 163.740 C 174.109 163.626,174.466 163.010,174.606 162.371 C 174.747 161.732,175.030 161.105,175.237 160.977 C 175.443 160.850,175.870 160.128,176.186 159.373 C 176.501 158.618,176.948 158.000,177.180 158.000 C 177.411 158.000,177.600 157.640,177.600 157.200 C 177.600 156.760,177.960 156.040,178.400 155.600 C 178.840 155.160,179.200 154.480,179.200 154.089 C 179.200 153.698,179.560 153.070,180.000 152.693 C 180.440 152.316,180.800 151.592,180.800 151.084 C 180.800 150.576,180.966 149.989,181.169 149.780 C 181.655 149.279,180.643 146.368,179.823 145.909 C 179.480 145.717,179.200 145.162,179.200 144.676 C 179.200 144.190,178.840 143.568,178.400 143.293 C 177.960 143.018,177.600 142.441,177.600 142.011 C 177.600 141.580,177.240 141.035,176.800 140.800 C 176.276 140.520,176.000 139.962,176.000 139.186 C 176.000 138.267,175.820 138.000,175.200 138.000 C 174.616 138.000,174.400 137.733,174.400 137.013 C 174.400 136.299,174.233 136.089,173.800 136.255 C 173.470 136.382,173.200 136.916,173.200 137.443 C 173.200 138.027,173.434 138.400,173.800 138.400 C 174.133 138.400,174.400 138.756,174.400 139.200 C 174.400 139.997,174.133 140.000,113.432 140.000 L 52.464 140.000 52.240 137.500 C 51.554 129.855,51.106 115.588,51.518 114.529 C 51.759 113.908,52.080 110.888,52.231 107.819 C 52.407 104.230,52.683 102.060,53.004 101.739 C 53.278 101.465,53.633 100.201,53.791 98.931 C 53.950 97.660,54.332 96.261,54.640 95.822 C 54.948 95.382,55.200 94.456,55.200 93.765 C 55.200 93.074,55.560 92.050,56.000 91.491 C 56.440 90.931,56.800 90.095,56.800 89.633 C 56.800 89.171,57.160 88.484,57.600 88.107 C 58.040 87.730,58.400 86.962,58.400 86.400 C 58.400 85.838,58.760 85.070,59.200 84.693 C 59.640 84.316,60.000 83.686,60.000 83.293 C 60.000 82.900,60.360 82.270,60.800 81.893 C 61.240 81.516,61.600 80.936,61.600 80.604 C 61.600 80.272,61.784 80.000,62.009 80.000 C 62.233 80.000,62.630 79.505,62.890 78.900 C 63.151 78.295,63.642 77.503,63.982 77.140 C 64.322 76.778,65.230 75.706,66.000 74.759 C 68.547 71.627,76.044 64.400,76.747 64.400 C 76.996 64.400,77.200 64.130,77.200 63.800 C 77.200 63.470,77.532 63.200,77.938 63.200 C 78.344 63.200,79.002 62.840,79.400 62.400 C 79.798 61.960,80.365 61.600,80.659 61.600 C 80.953 61.600,81.418 61.240,81.693 60.800 C 81.968 60.360,82.509 60.000,82.896 60.000 C 83.283 60.000,83.960 59.640,84.400 59.200 C 84.840 58.760,85.622 58.400,86.138 58.400 C 86.654 58.400,87.402 58.040,87.800 57.600 C 88.198 57.160,88.918 56.800,89.400 56.800 C 89.882 56.800,90.602 56.440,91.000 56.000 C 91.398 55.560,92.216 55.200,92.818 55.200 C 93.420 55.200,94.697 54.844,95.656 54.409 C 96.615 53.974,97.940 53.613,98.600 53.606 C 99.260 53.600,100.340 53.309,101.000 52.960 C 101.660 52.611,104.000 52.162,106.200 51.963 C 108.400 51.764,110.740 51.436,111.400 51.235 C 113.661 50.545,286.121 50.699,289.400 51.393 M227.200 130.849 C 227.200 131.555,227.300 131.615,227.796 131.204 C 228.398 130.704,228.269 130.000,227.576 130.000 C 227.369 130.000,227.200 130.382,227.200 130.849 M225.600 133.600 C 225.600 134.347,225.707 134.453,226.080 134.080 C 226.453 133.707,226.453 133.493,226.080 133.120 C 225.707 132.747,225.600 132.853,225.600 133.600 M171.600 133.751 C 171.600 134.054,171.870 134.526,172.200 134.800 C 172.707 135.221,172.800 135.136,172.800 134.249 C 172.800 133.583,172.581 133.200,172.200 133.200 C 171.870 133.200,171.600 133.448,171.600 133.751 M219.500 157.165 C 220.215 157.447,220.800 157.833,220.800 158.021 C 220.800 158.378,222.431 160.980,223.272 161.967 C 223.714 162.484,225.647 165.941,226.871 168.400 C 227.144 168.950,227.690 169.829,228.084 170.354 C 228.478 170.879,228.800 171.644,228.800 172.054 C 228.800 172.464,228.978 172.800,229.195 172.800 C 229.412 172.800,229.864 173.385,230.199 174.100 C 230.805 175.392,233.205 179.720,234.800 182.400 C 236.313 184.941,238.781 189.380,239.360 190.600 C 239.673 191.260,240.080 191.948,240.265 192.130 C 240.603 192.463,243.174 196.946,244.090 198.800 C 244.361 199.350,244.692 199.890,244.825 200.000 C 244.958 200.110,245.655 201.370,246.374 202.800 C 247.092 204.230,247.880 205.644,248.125 205.943 C 248.674 206.614,249.046 207.258,250.740 210.463 C 251.477 211.858,252.266 213.227,252.493 213.505 C 252.906 214.009,253.546 215.148,255.162 218.247 C 256.919 221.619,255.389 221.375,276.180 221.600 C 288.949 221.738,294.852 221.939,295.239 222.248 C 295.548 222.494,296.433 222.899,297.207 223.148 C 304.147 225.380,307.840 236.401,303.795 242.808 C 300.029 248.773,297.434 249.753,284.732 250.000 C 279.085 250.110,274.351 250.313,274.213 250.452 C 273.914 250.753,275.052 253.077,277.900 257.979 C 279.055 259.967,280.000 261.716,280.000 261.865 C 280.000 262.015,280.250 262.421,280.555 262.769 C 280.860 263.116,281.635 264.390,282.278 265.600 C 282.922 266.810,283.963 268.610,284.592 269.600 C 288.960 276.469,288.585 283.220,283.551 288.333 C 278.389 293.575,269.994 293.820,264.716 288.883 C 262.855 287.142,262.013 285.917,258.600 279.985 C 257.720 278.455,255.560 274.748,253.800 271.746 C 252.040 268.745,249.969 265.152,249.197 263.762 C 248.426 262.372,247.571 261.011,247.297 260.737 C 247.024 260.464,246.800 260.093,246.800 259.914 C 246.800 259.610,244.959 256.317,243.600 254.191 C 243.270 253.675,241.689 250.946,240.087 248.126 C 238.485 245.307,237.004 242.730,236.797 242.400 C 236.590 242.070,235.380 240.040,234.110 237.889 C 232.839 235.738,231.401 233.308,230.913 232.489 C 230.426 231.670,229.706 230.427,229.313 229.726 C 228.921 229.026,227.880 227.230,227.000 225.735 C 226.120 224.241,225.130 222.528,224.800 221.928 C 223.135 218.901,219.402 212.575,219.179 212.400 C 218.941 212.213,218.653 211.715,216.987 208.600 C 216.634 207.940,215.915 206.680,215.390 205.800 C 214.463 204.247,213.096 201.523,211.555 198.160 C 211.142 197.258,210.687 195.908,210.545 195.160 C 210.402 194.412,210.053 193.337,209.769 192.770 C 209.485 192.204,209.073 190.584,208.854 189.170 C 208.635 187.757,208.245 185.725,207.986 184.656 C 207.421 182.318,207.610 173.963,208.246 173.160 C 208.490 172.852,208.799 171.630,208.933 170.445 C 209.066 169.260,209.428 168.000,209.737 167.645 C 210.046 167.290,210.421 166.316,210.571 165.479 C 210.721 164.642,211.104 163.858,211.422 163.736 C 211.740 163.614,212.000 163.242,212.000 162.909 C 212.000 162.032,214.111 158.832,214.700 158.815 C 214.975 158.807,215.200 158.562,215.200 158.272 C 215.200 157.799,217.506 156.406,218.000 156.581 C 218.110 156.620,218.785 156.883,219.500 157.165 M137.482 254.003 C 144.579 256.055,148.608 260.033,147.824 264.211 C 147.559 265.626,144.086 272.743,143.077 273.939 C 142.815 274.250,142.060 275.459,141.400 276.626 C 133.544 290.513,131.682 292.199,124.200 292.199 C 112.896 292.199,107.067 281.231,112.826 270.800 C 113.704 269.210,117.270 262.929,117.595 262.400 C 117.798 262.070,118.493 260.891,119.140 259.781 C 121.352 255.982,123.271 254.320,126.800 253.147 C 128.393 252.617,134.340 253.094,137.482 254.003 " stroke="none" fill="#1b9af0" fill-rule="evenodd"></path><path id="path1" d="M176.402 105.693 C 166.682 109.623,165.267 119.338,172.746 130.802 C 173.816 132.440,174.315 133.309,175.211 135.089 C 175.678 136.017,176.507 137.436,177.054 138.241 C 177.600 139.047,178.528 140.627,179.115 141.753 C 179.703 142.879,180.772 144.696,181.492 145.791 C 183.135 148.291,183.157 149.946,181.581 152.400 C 180.945 153.390,179.777 155.370,178.987 156.800 C 178.196 158.230,177.115 160.120,176.583 161.000 C 176.051 161.880,175.393 163.050,175.121 163.600 C 174.849 164.150,173.797 165.950,172.783 167.600 C 171.770 169.250,170.661 171.140,170.320 171.800 C 169.979 172.460,165.389 180.470,160.121 189.600 C 154.852 198.730,148.878 209.101,146.844 212.647 C 140.865 223.073,142.765 222.357,121.000 222.388 C 103.523 222.414,102.600 222.518,99.000 224.862 C 89.400 231.114,92.040 246.136,103.231 248.943 C 107.323 249.969,224.704 249.910,226.760 248.881 C 229.320 247.599,230.737 240.237,228.879 237.870 C 228.676 237.611,228.400 236.935,228.264 236.367 C 227.255 232.129,221.071 225.945,216.833 224.936 C 216.265 224.800,215.586 224.521,215.324 224.316 C 213.750 223.079,208.431 222.656,191.600 222.429 C 182.250 222.303,174.375 222.054,174.100 221.876 C 173.069 221.209,173.357 220.517,177.700 213.214 C 178.745 211.456,179.600 209.847,179.600 209.638 C 179.600 209.428,179.831 209.019,180.113 208.729 C 180.396 208.438,183.840 202.620,187.767 195.800 C 191.694 188.980,195.535 182.320,196.303 181.000 C 198.111 177.890,199.003 176.344,200.057 174.500 C 200.528 173.675,201.243 172.460,201.647 171.800 C 202.051 171.140,202.873 169.700,203.476 168.600 C 204.078 167.500,204.757 166.290,204.985 165.912 C 205.935 164.337,219.849 140.305,220.400 139.288 C 220.730 138.680,221.720 136.950,222.600 135.445 C 223.480 133.939,224.830 131.580,225.600 130.202 C 226.370 128.823,227.204 127.449,227.453 127.148 C 234.226 118.969,228.389 105.681,217.684 104.904 C 211.442 104.451,207.440 107.397,202.444 116.119 C 199.081 121.990,198.926 122.040,196.706 117.985 C 196.047 116.783,195.218 115.350,194.861 114.800 C 194.505 114.250,193.975 113.353,193.683 112.808 C 190.170 106.244,182.673 103.157,176.402 105.693 M215.455 159.478 C 208.883 166.437,206.896 180.050,210.620 192.600 C 212.630 199.373,214.236 202.762,220.005 212.400 C 220.203 212.730,221.913 215.700,223.806 219.000 C 225.698 222.300,227.410 225.270,227.610 225.600 C 227.809 225.930,228.563 227.251,229.286 228.536 C 230.009 229.820,230.998 231.530,231.485 232.336 C 231.972 233.141,232.602 234.251,232.885 234.802 C 233.168 235.353,234.357 237.423,235.527 239.402 C 236.697 241.381,237.807 243.270,237.995 243.600 C 241.349 249.499,255.069 273.268,255.543 274.000 C 256.759 275.878,257.001 276.291,258.152 278.444 C 260.725 283.261,263.469 287.368,264.990 288.681 C 272.106 294.820,283.117 292.084,286.378 283.366 C 288.392 277.984,287.330 274.556,279.786 262.084 C 279.559 261.708,278.967 260.680,278.471 259.800 C 277.976 258.920,277.140 257.480,276.614 256.600 C 272.281 249.347,272.029 249.600,283.592 249.600 C 290.075 249.600,292.821 249.446,294.593 248.985 C 307.894 245.521,308.716 227.976,295.800 223.231 C 294.516 222.760,290.588 222.600,275.932 222.422 L 257.663 222.200 256.657 221.254 C 256.104 220.734,254.553 218.394,253.210 216.054 C 251.867 213.715,250.603 211.530,250.400 211.200 C 250.197 210.870,247.569 206.280,244.559 201.000 C 241.549 195.720,238.788 190.950,238.424 190.400 C 238.059 189.850,237.546 188.950,237.283 188.400 C 237.021 187.850,236.582 187.040,236.308 186.600 C 234.512 183.717,233.293 181.666,232.861 180.800 C 232.586 180.250,231.965 179.143,231.481 178.339 C 229.536 175.115,228.400 173.086,228.400 172.839 C 228.400 172.695,228.085 172.144,227.700 171.614 C 227.081 170.762,225.910 168.766,223.232 164.000 C 219.767 157.834,217.985 156.798,215.455 159.478 M126.099 253.926 C 124.038 254.663,122.938 255.402,121.521 257.000 C 120.627 258.008,114.295 268.869,112.427 272.600 C 107.913 281.613,114.098 291.979,124.000 291.998 C 130.377 292.011,133.871 289.440,138.132 281.600 C 138.790 280.390,139.659 278.971,140.064 278.446 C 140.469 277.921,140.800 277.359,140.800 277.196 C 140.800 276.914,141.969 274.818,143.887 271.661 C 147.518 265.684,148.186 262.507,146.377 259.827 C 143.334 255.319,131.680 251.928,126.099 253.926 " stroke="none" fill="#f7fafb" fill-rule="evenodd"></path><path id="path2" d="M111.400 51.235 C 110.740 51.436,108.400 51.764,106.200 51.963 C 104.000 52.162,101.660 52.611,101.000 52.960 C 100.340 53.309,99.260 53.600,98.600 53.606 C 97.940 53.613,96.615 53.974,95.656 54.409 C 94.697 54.844,93.420 55.200,92.818 55.200 C 92.216 55.200,91.398 55.560,91.000 56.000 C 90.602 56.440,89.882 56.800,89.400 56.800 C 88.918 56.800,88.198 57.160,87.800 57.600 C 87.402 58.040,86.654 58.400,86.138 58.400 C 85.622 58.400,84.840 58.760,84.400 59.200 C 83.960 59.640,83.283 60.000,82.896 60.000 C 82.509 60.000,81.968 60.360,81.693 60.800 C 81.418 61.240,80.953 61.600,80.659 61.600 C 80.365 61.600,79.798 61.960,79.400 62.400 C 79.002 62.840,78.344 63.200,77.938 63.200 C 77.532 63.200,77.200 63.470,77.200 63.800 C 77.200 64.130,76.996 64.400,76.747 64.400 C 76.044 64.400,68.547 71.627,66.000 74.759 C 65.230 75.706,64.322 76.778,63.982 77.140 C 63.642 77.503,63.151 78.295,62.890 78.900 C 62.630 79.505,62.233 80.000,62.009 80.000 C 61.784 80.000,61.600 80.272,61.600 80.604 C 61.600 80.936,61.240 81.516,60.800 81.893 C 60.360 82.270,60.000 82.900,60.000 83.293 C 60.000 83.686,59.640 84.316,59.200 84.693 C 58.760 85.070,58.400 85.838,58.400 86.400 C 58.400 86.962,58.040 87.730,57.600 88.107 C 57.160 88.484,56.800 89.171,56.800 89.633 C 56.800 90.095,56.440 90.931,56.000 91.491 C 55.560 92.050,55.200 93.074,55.200 93.765 C 55.200 94.456,54.948 95.382,54.640 95.822 C 54.332 96.261,53.950 97.660,53.791 98.931 C 53.633 100.201,53.278 101.465,53.004 101.739 C 52.683 102.060,52.407 104.230,52.231 107.819 C 52.080 110.888,51.759 113.908,51.518 114.529 C 51.106 115.588,51.554 129.855,52.240 137.500 L 52.464 140.000 113.432 140.000 C 174.133 140.000,174.400 139.997,174.400 139.200 C 174.400 138.756,174.133 138.400,173.800 138.400 C 173.434 138.400,173.200 138.027,173.200 137.443 C 173.200 136.916,173.470 136.382,173.800 136.255 C 174.233 136.089,174.400 136.299,174.400 137.013 C 174.400 137.733,174.616 138.000,175.200 138.000 C 175.820 138.000,176.000 138.267,176.000 139.186 C 176.000 139.962,176.276 140.520,176.800 140.800 C 177.240 141.035,177.600 141.580,177.600 142.011 C 177.600 142.441,177.960 143.018,178.400 143.293 C 178.840 143.568,179.200 144.190,179.200 144.676 C 179.200 145.162,179.480 145.717,179.823 145.909 C 180.643 146.368,181.655 149.279,181.169 149.780 C 180.966 149.989,180.800 150.576,180.800 151.084 C 180.800 151.592,180.440 152.316,180.000 152.693 C 179.560 153.070,179.200 153.698,179.200 154.089 C 179.200 154.480,178.840 155.160,178.400 155.600 C 177.960 156.040,177.600 156.760,177.600 157.200 C 177.600 157.640,177.411 158.000,177.180 158.000 C 176.948 158.000,176.501 158.618,176.186 159.373 C 175.870 160.128,175.443 160.850,175.237 160.977 C 175.030 161.105,174.747 161.732,174.606 162.371 C 174.466 163.010,174.109 163.626,173.813 163.740 C 173.517 163.853,173.154 164.498,173.006 165.173 C 172.858 165.848,172.590 166.400,172.410 166.400 C 172.230 166.400,171.480 167.581,170.742 169.025 C 168.343 173.718,167.854 174.592,167.323 175.129 C 167.035 175.419,166.800 175.982,166.800 176.380 C 166.800 176.777,166.511 177.342,166.158 177.635 C 165.805 177.927,165.359 178.535,165.165 178.984 C 164.972 179.433,164.363 180.520,163.811 181.400 C 162.703 183.169,162.000 184.653,162.000 185.226 C 162.000 185.432,161.822 185.600,161.605 185.600 C 161.388 185.600,160.938 186.185,160.605 186.900 C 159.795 188.636,156.394 194.687,154.815 197.200 C 154.607 197.530,153.341 199.780,152.000 202.200 C 150.659 204.620,149.390 206.870,149.178 207.200 C 148.967 207.530,148.581 208.250,148.320 208.800 C 148.059 209.350,147.627 210.070,147.361 210.400 C 147.094 210.730,146.306 212.080,145.610 213.400 C 143.741 216.941,143.057 218.110,142.500 218.714 C 142.225 219.013,142.000 219.420,142.000 219.618 C 142.000 221.192,139.959 221.393,121.600 221.623 C 102.080 221.867,102.671 221.794,98.600 224.458 C 88.955 230.767,91.137 245.394,102.297 249.233 C 105.502 250.336,224.641 250.445,226.943 249.347 C 229.685 248.039,231.266 240.082,229.301 237.478 C 229.102 237.215,228.728 236.256,228.468 235.347 C 228.209 234.439,227.727 233.472,227.398 233.198 C 227.069 232.925,226.800 232.471,226.800 232.188 C 226.800 231.179,221.734 226.598,219.357 225.459 C 218.061 224.837,216.694 224.169,216.321 223.974 C 215.719 223.660,214.422 223.341,208.200 221.978 C 207.320 221.785,199.332 221.629,190.450 221.630 C 181.567 221.632,174.212 221.545,174.104 221.437 C 173.910 221.244,175.462 217.771,176.087 217.000 C 176.668 216.283,178.400 213.569,178.400 213.376 C 178.400 213.158,180.668 209.234,181.701 207.665 C 182.086 207.079,182.684 206.060,183.028 205.400 C 183.373 204.740,184.048 203.541,184.527 202.736 C 187.062 198.482,188.000 196.773,188.000 196.406 C 188.000 196.183,188.158 196.000,188.351 196.000 C 188.545 196.000,188.933 195.445,189.214 194.766 C 189.495 194.087,189.929 193.322,190.177 193.066 C 190.426 192.810,191.142 191.610,191.768 190.400 C 192.394 189.190,193.243 187.771,193.653 187.246 C 194.064 186.721,194.400 186.106,194.400 185.878 C 194.400 185.650,194.652 185.179,194.960 184.831 C 195.268 184.484,196.033 183.279,196.660 182.153 C 198.291 179.225,201.109 174.404,202.010 173.000 C 203.041 171.394,204.237 169.273,204.961 167.768 C 205.287 167.091,205.834 166.304,206.177 166.019 C 206.520 165.735,206.800 165.327,206.800 165.114 C 206.800 164.901,207.160 164.269,207.600 163.709 C 208.040 163.150,208.400 162.446,208.400 162.146 C 208.400 161.846,208.760 161.240,209.200 160.800 C 209.640 160.360,210.000 159.640,210.000 159.200 C 210.000 158.760,210.184 158.400,210.409 158.400 C 210.633 158.400,211.035 157.905,211.302 157.300 C 211.568 156.695,212.464 155.210,213.292 154.000 C 214.121 152.790,214.799 151.485,214.799 151.100 C 214.800 150.715,214.989 150.400,215.220 150.400 C 215.452 150.400,215.904 149.770,216.226 149.000 C 216.548 148.230,216.988 147.600,217.205 147.600 C 217.422 147.600,217.600 147.234,217.600 146.787 C 217.600 146.341,217.865 145.873,218.188 145.749 C 218.511 145.625,218.997 144.911,219.268 144.162 C 219.539 143.413,219.995 142.800,220.280 142.800 C 220.566 142.800,220.800 142.464,220.800 142.054 C 220.800 141.644,221.160 140.850,221.600 140.291 C 222.040 139.731,222.400 138.970,222.400 138.599 C 222.400 138.229,222.741 137.836,223.157 137.727 C 223.598 137.612,224.011 137.043,224.147 136.365 C 224.489 134.653,225.200 134.947,225.200 136.800 C 225.200 137.680,225.020 138.400,224.800 138.400 C 224.580 138.400,224.400 138.760,224.400 139.200 C 224.400 139.997,224.667 140.000,285.971 140.000 L 347.542 140.000 347.754 137.900 C 348.964 125.918,348.622 102.879,347.222 102.014 C 346.869 101.796,346.541 100.625,346.371 98.982 C 346.218 97.510,345.873 96.169,345.603 96.002 C 345.334 95.835,345.015 94.822,344.896 93.749 C 344.755 92.493,344.415 91.614,343.939 91.277 C 343.529 90.988,343.200 90.269,343.200 89.666 C 343.200 89.068,342.840 88.270,342.400 87.893 C 341.960 87.516,341.600 86.750,341.600 86.191 C 341.600 85.632,341.341 85.076,341.024 84.954 C 340.708 84.833,340.331 84.196,340.187 83.540 C 340.043 82.883,339.672 82.249,339.362 82.130 C 339.053 82.012,338.800 81.677,338.800 81.386 C 338.800 81.095,338.553 80.610,338.252 80.309 C 337.950 80.008,337.406 79.185,337.042 78.480 C 336.677 77.776,336.204 77.200,335.990 77.200 C 335.775 77.200,335.600 76.852,335.600 76.427 C 335.600 76.002,335.240 75.540,334.800 75.400 C 334.360 75.260,334.000 74.974,334.000 74.763 C 334.000 74.216,325.802 66.000,325.255 66.000 C 325.005 66.000,324.800 65.759,324.800 65.464 C 324.800 65.170,324.350 64.723,323.800 64.473 C 323.250 64.222,322.800 63.833,322.800 63.609 C 322.800 63.384,322.585 63.200,322.322 63.200 C 321.732 63.200,318.718 61.188,318.280 60.501 C 318.104 60.226,317.609 60.000,317.180 60.000 C 316.751 60.000,316.040 59.640,315.600 59.200 C 315.160 58.760,314.438 58.400,313.996 58.400 C 313.554 58.400,312.884 58.040,312.507 57.600 C 312.130 57.160,311.436 56.800,310.965 56.800 C 310.494 56.800,309.650 56.440,309.091 56.000 C 308.531 55.560,307.652 55.199,307.137 55.198 C 306.622 55.196,305.682 54.925,305.050 54.595 C 304.417 54.265,302.977 53.832,301.850 53.631 C 300.722 53.431,299.080 52.990,298.200 52.651 C 297.320 52.312,295.610 52.024,294.400 52.011 C 293.190 51.997,290.940 51.719,289.400 51.393 C 286.121 50.699,113.661 50.545,111.400 51.235 M186.400 105.851 C 189.868 107.706,192.086 109.825,193.683 112.808 C 193.975 113.353,194.505 114.250,194.861 114.800 C 195.218 115.350,196.047 116.783,196.706 117.985 C 198.926 122.040,199.081 121.990,202.444 116.119 C 207.440 107.397,211.442 104.451,217.684 104.904 C 228.389 105.681,234.226 118.969,227.453 127.148 C 227.204 127.449,226.370 128.823,225.600 130.202 C 224.830 131.580,223.480 133.939,222.600 135.445 C 221.720 136.950,220.730 138.680,220.400 139.288 C 219.849 140.305,205.935 164.337,204.985 165.912 C 204.757 166.290,204.078 167.500,203.476 168.600 C 202.873 169.700,202.051 171.140,201.647 171.800 C 201.243 172.460,200.528 173.675,200.057 174.500 C 199.003 176.344,198.111 177.890,196.303 181.000 C 195.535 182.320,191.694 188.980,187.767 195.800 C 183.840 202.620,180.396 208.438,180.113 208.729 C 179.831 209.019,179.600 209.428,179.600 209.638 C 179.600 209.847,178.745 211.456,177.700 213.214 C 173.357 220.517,173.069 221.209,174.100 221.876 C 174.375 222.054,182.250 222.303,191.600 222.429 C 208.431 222.656,213.750 223.079,215.324 224.316 C 215.586 224.521,216.265 224.800,216.833 224.936 C 221.071 225.945,227.255 232.129,228.264 236.367 C 228.400 236.935,228.676 237.611,228.879 237.870 C 230.737 240.237,229.320 247.599,226.760 248.881 C 224.704 249.910,107.323 249.969,103.231 248.943 C 92.040 246.136,89.400 231.114,99.000 224.862 C 102.600 222.518,103.523 222.414,121.000 222.388 C 142.765 222.357,140.865 223.073,146.844 212.647 C 148.878 209.101,154.852 198.730,160.121 189.600 C 165.389 180.470,169.979 172.460,170.320 171.800 C 170.661 171.140,171.770 169.250,172.783 167.600 C 173.797 165.950,174.849 164.150,175.121 163.600 C 175.393 163.050,176.051 161.880,176.583 161.000 C 177.115 160.120,178.196 158.230,178.987 156.800 C 179.777 155.370,180.945 153.390,181.581 152.400 C 183.157 149.946,183.135 148.291,181.492 145.791 C 180.772 144.696,179.703 142.879,179.115 141.753 C 178.528 140.627,177.600 139.047,177.054 138.241 C 176.507 137.436,175.678 136.017,175.211 135.089 C 174.315 133.309,173.816 132.440,172.746 130.802 C 169.963 126.536,167.600 120.878,167.600 118.481 C 167.600 109.211,178.718 101.743,186.400 105.851 M228.172 130.355 C 228.293 130.550,228.123 130.932,227.796 131.204 C 227.300 131.615,227.200 131.555,227.200 130.849 C 227.200 129.991,227.768 129.702,228.172 130.355 M226.080 134.080 C 225.707 134.453,225.600 134.347,225.600 133.600 C 225.600 132.853,225.707 132.747,226.080 133.120 C 226.453 133.493,226.453 133.707,226.080 134.080 M172.800 134.249 C 172.800 135.136,172.707 135.221,172.200 134.800 C 171.870 134.526,171.600 134.054,171.600 133.751 C 171.600 133.448,171.870 133.200,172.200 133.200 C 172.581 133.200,172.800 133.583,172.800 134.249 M216.500 157.127 C 215.785 157.467,215.200 157.982,215.200 158.272 C 215.200 158.562,214.975 158.807,214.700 158.815 C 214.111 158.832,212.000 162.032,212.000 162.909 C 212.000 163.242,211.740 163.614,211.422 163.736 C 211.104 163.858,210.721 164.642,210.571 165.479 C 210.421 166.316,210.046 167.290,209.737 167.645 C 209.428 168.000,209.066 169.260,208.933 170.445 C 208.799 171.630,208.490 172.852,208.246 173.160 C 207.610 173.963,207.421 182.318,207.986 184.656 C 208.245 185.725,208.635 187.757,208.854 189.170 C 209.073 190.584,209.485 192.204,209.769 192.770 C 210.053 193.337,210.402 194.412,210.545 195.160 C 210.687 195.908,211.142 197.258,211.555 198.160 C 213.096 201.523,214.463 204.247,215.390 205.800 C 215.915 206.680,216.634 207.940,216.987 208.600 C 218.653 211.715,218.941 212.213,219.179 212.400 C 219.402 212.575,223.135 218.901,224.800 221.928 C 225.130 222.528,226.120 224.241,227.000 225.735 C 227.880 227.230,228.921 229.026,229.313 229.726 C 229.706 230.427,230.426 231.670,230.913 232.489 C 231.401 233.308,232.839 235.738,234.110 237.889 C 235.380 240.040,236.590 242.070,236.797 242.400 C 237.004 242.730,238.485 245.307,240.087 248.126 C 241.689 250.946,243.270 253.675,243.600 254.191 C 244.959 256.317,246.800 259.610,246.800 259.914 C 246.800 260.093,247.024 260.464,247.297 260.737 C 247.571 261.011,248.426 262.372,249.197 263.762 C 249.969 265.152,252.040 268.745,253.800 271.746 C 255.560 274.748,257.720 278.458,258.600 279.992 C 261.679 285.358,262.514 286.613,264.151 288.333 C 265.638 289.895,268.268 291.628,269.084 291.582 C 269.258 291.573,268.770 291.228,268.000 290.817 C 264.640 289.021,262.093 285.821,258.152 278.444 C 257.001 276.291,256.759 275.878,255.543 274.000 C 255.069 273.268,241.349 249.499,237.995 243.600 C 237.807 243.270,236.697 241.381,235.527 239.402 C 234.357 237.423,233.168 235.353,232.885 234.802 C 232.602 234.251,231.972 233.141,231.485 232.336 C 230.998 231.530,230.009 229.820,229.286 228.536 C 228.563 227.251,227.809 225.930,227.610 225.600 C 227.410 225.270,225.698 222.300,223.806 219.000 C 221.913 215.700,220.203 212.730,220.005 212.400 C 216.238 206.107,213.073 200.106,212.198 197.600 C 207.297 183.563,207.362 174.466,212.436 164.200 C 216.396 156.188,218.817 156.143,223.232 164.000 C 225.910 168.766,227.081 170.762,227.700 171.614 C 228.085 172.144,228.400 172.695,228.400 172.839 C 228.400 173.086,229.536 175.115,231.481 178.339 C 231.965 179.143,232.586 180.250,232.861 180.800 C 233.293 181.666,234.512 183.717,236.308 186.600 C 236.582 187.040,237.021 187.850,237.283 188.400 C 237.546 188.950,238.059 189.850,238.424 190.400 C 238.788 190.950,241.549 195.720,244.559 201.000 C 247.569 206.280,250.197 210.870,250.400 211.200 C 250.603 211.530,251.867 213.715,253.210 216.054 C 254.553 218.394,256.104 220.734,256.657 221.254 L 257.663 222.200 275.932 222.422 C 290.588 222.600,294.516 222.760,295.800 223.231 C 308.716 227.976,307.894 245.521,294.593 248.985 C 292.821 249.446,290.075 249.600,283.592 249.600 C 272.994 249.600,272.868 249.645,274.551 252.857 C 276.308 256.212,277.061 257.550,277.500 258.095 C 277.724 258.373,278.393 259.500,278.986 260.600 C 280.652 263.686,283.183 267.835,283.192 267.494 C 283.199 267.236,281.781 264.655,280.395 262.400 C 277.275 257.324,273.888 250.779,274.213 250.452 C 274.351 250.313,279.085 250.110,284.732 250.000 C 297.434 249.753,300.029 248.773,303.795 242.808 C 307.840 236.401,304.147 225.380,297.207 223.148 C 296.433 222.899,295.548 222.494,295.239 222.248 C 294.852 221.939,288.949 221.738,276.180 221.600 C 255.389 221.375,256.919 221.619,255.162 218.247 C 253.546 215.148,252.906 214.009,252.493 213.505 C 252.266 213.227,251.477 211.858,250.740 210.463 C 249.046 207.258,248.674 206.614,248.125 205.943 C 247.880 205.644,247.092 204.230,246.374 202.800 C 245.655 201.370,244.958 200.110,244.825 200.000 C 244.692 199.890,244.361 199.350,244.090 198.800 C 243.174 196.946,240.603 192.463,240.265 192.130 C 240.080 191.948,239.673 191.260,239.360 190.600 C 238.781 189.380,236.313 184.941,234.800 182.400 C 233.205 179.720,230.805 175.392,230.199 174.100 C 229.864 173.385,229.412 172.800,229.195 172.800 C 228.978 172.800,228.800 172.464,228.800 172.054 C 228.800 171.644,228.478 170.879,228.084 170.354 C 227.690 169.829,227.144 168.950,226.871 168.400 C 225.647 165.941,223.714 162.484,223.272 161.967 C 222.431 160.980,220.800 158.378,220.800 158.021 C 220.800 157.745,219.736 157.198,218.000 156.581 C 217.890 156.542,217.215 156.788,216.500 157.127 M126.800 253.147 C 123.271 254.320,121.352 255.982,119.140 259.781 C 118.493 260.891,117.800 262.070,117.600 262.400 C 117.400 262.730,116.388 264.530,115.352 266.400 C 114.317 268.270,113.210 270.105,112.893 270.477 C 112.577 270.849,112.382 271.347,112.461 271.584 C 112.540 271.820,114.404 268.859,116.602 265.004 C 123.279 253.295,126.810 251.427,136.803 254.319 C 148.029 257.566,149.806 261.918,143.887 271.661 C 141.745 275.187,140.800 276.933,140.951 277.084 C 141.265 277.398,146.564 267.969,147.391 265.626 C 148.819 261.579,147.256 258.739,141.932 255.702 C 138.488 253.738,129.558 252.230,126.800 253.147 M284.387 269.978 C 290.773 280.808,285.402 291.799,273.724 291.800 C 271.101 291.800,269.960 291.920,270.524 292.135 C 275.479 294.031,283.279 290.310,286.322 284.600 C 288.565 280.393,287.084 271.125,283.724 268.337 C 283.396 268.065,283.694 268.803,284.387 269.978 M111.452 273.746 C 111.094 274.502,110.818 275.544,110.841 276.060 C 110.875 276.852,110.927 276.811,111.171 275.800 C 111.331 275.140,111.687 274.180,111.963 273.666 C 112.239 273.152,112.384 272.650,112.285 272.551 C 112.186 272.452,111.811 272.990,111.452 273.746 M110.501 278.600 C 110.505 279.480,110.587 279.793,110.683 279.295 C 110.779 278.798,110.775 278.078,110.675 277.695 C 110.575 277.313,110.496 277.720,110.501 278.600 M139.756 278.924 C 138.047 281.564,137.541 282.474,137.697 282.630 C 137.785 282.719,138.276 282.028,138.788 281.096 C 139.300 280.163,139.991 279.084,140.324 278.698 C 140.656 278.311,140.850 277.917,140.755 277.822 C 140.660 277.727,140.210 278.223,139.756 278.924 M110.841 281.540 C 110.798 282.517,111.970 285.364,112.285 285.049 C 112.384 284.950,112.239 284.448,111.963 283.934 C 111.687 283.420,111.331 282.460,111.171 281.800 C 110.927 280.789,110.875 280.748,110.841 281.540 M136.186 284.988 C 135.609 285.972,134.117 287.711,132.869 288.854 C 131.621 289.996,130.971 290.733,131.424 290.492 C 133.156 289.570,138.411 283.200,137.440 283.200 C 137.326 283.200,136.762 284.005,136.186 284.988 M112.400 285.930 C 112.400 287.151,118.832 292.000,120.451 292.000 C 120.713 292.000,119.841 291.457,118.512 290.793 C 117.178 290.126,115.268 288.701,114.248 287.610 C 113.232 286.523,112.400 285.767,112.400 285.930 M128.600 291.414 C 127.940 291.717,127.670 291.966,128.000 291.968 C 128.330 291.970,129.050 291.714,129.600 291.400 C 130.865 290.677,130.189 290.687,128.600 291.414 M122.711 292.293 C 123.651 292.378,125.091 292.377,125.911 292.291 C 126.730 292.205,125.960 292.136,124.200 292.137 C 122.440 292.139,121.770 292.209,122.711 292.293 " stroke="none" fill="#17c5fb" fill-rule="evenodd"></path><path id="path3" d="M76.000 0.400 C 76.000 0.632,74.721 0.800,72.963 0.800 C 70.262 0.800,69.902 0.889,69.716 1.600 C 69.532 2.302,69.170 2.400,66.767 2.400 C 64.438 2.400,63.964 2.520,63.600 3.200 C 63.282 3.793,62.762 4.000,61.586 4.000 C 60.533 4.000,59.731 4.269,59.200 4.800 C 58.705 5.295,57.867 5.600,57.000 5.600 C 55.867 5.600,55.600 5.752,55.600 6.400 C 55.600 7.067,55.333 7.200,54.000 7.200 C 52.667 7.200,52.400 7.333,52.400 8.000 C 52.400 8.667,52.133 8.800,50.800 8.800 C 49.467 8.800,49.200 8.933,49.200 9.600 C 49.200 10.252,48.933 10.400,47.763 10.400 C 46.662 10.400,46.276 10.587,46.116 11.200 C 45.959 11.801,45.570 12.000,44.553 12.000 C 43.617 12.000,43.200 12.185,43.200 12.600 C 43.200 12.933,42.844 13.200,42.400 13.200 C 41.867 13.200,41.600 13.467,41.600 14.000 C 41.600 14.579,41.333 14.800,40.633 14.800 C 39.252 14.800,38.400 15.198,38.400 15.843 C 38.400 16.149,38.113 16.400,37.763 16.400 C 37.412 16.400,37.031 16.760,36.916 17.200 C 36.801 17.640,36.396 18.000,36.015 18.000 C 35.635 18.000,34.998 18.360,34.600 18.800 C 34.202 19.240,33.556 19.600,33.165 19.600 C 32.774 19.600,32.340 19.960,32.200 20.400 C 32.060 20.840,31.671 21.200,31.336 21.200 C 31.000 21.200,30.631 21.560,30.516 22.000 C 30.401 22.440,30.058 22.800,29.753 22.800 C 29.449 22.800,29.200 23.160,29.200 23.600 C 29.200 24.133,28.933 24.400,28.400 24.400 C 27.867 24.400,27.600 24.667,27.600 25.200 C 27.600 25.733,27.333 26.000,26.800 26.000 C 26.267 26.000,26.000 26.267,26.000 26.800 C 26.000 27.333,25.733 27.600,25.200 27.600 C 24.667 27.600,24.400 27.867,24.400 28.400 C 24.400 28.933,24.133 29.200,23.600 29.200 C 23.160 29.200,22.800 29.449,22.800 29.753 C 22.800 30.058,22.440 30.401,22.000 30.516 C 21.560 30.631,21.200 31.000,21.200 31.336 C 21.200 31.671,20.840 32.060,20.400 32.200 C 19.960 32.340,19.600 32.712,19.600 33.027 C 19.600 33.342,19.240 33.960,18.800 34.400 C 18.360 34.840,18.000 35.539,18.000 35.953 C 18.000 36.370,17.643 36.800,17.200 36.916 C 16.760 37.031,16.400 37.412,16.400 37.763 C 16.400 38.113,16.125 38.400,15.790 38.400 C 15.429 38.400,15.080 38.902,14.934 39.632 C 14.798 40.309,14.353 41.073,13.944 41.328 C 13.535 41.583,13.200 42.109,13.200 42.496 C 13.200 42.883,12.930 43.200,12.600 43.200 C 12.185 43.200,12.000 43.617,12.000 44.553 C 12.000 45.570,11.801 45.959,11.200 46.116 C 10.587 46.276,10.400 46.662,10.400 47.763 C 10.400 48.933,10.252 49.200,9.600 49.200 C 8.933 49.200,8.800 49.467,8.800 50.800 C 8.800 52.133,8.667 52.400,8.000 52.400 C 7.333 52.400,7.200 52.667,7.200 54.000 C 7.200 55.333,7.067 55.600,6.400 55.600 C 5.742 55.600,5.600 55.867,5.600 57.104 C 5.600 58.174,5.370 58.751,4.800 59.107 C 4.194 59.485,4.000 60.040,4.000 61.389 C 4.000 62.762,3.816 63.270,3.200 63.600 C 2.520 63.964,2.400 64.438,2.400 66.767 C 2.400 69.170,2.302 69.532,1.600 69.716 C 0.889 69.902,0.800 70.262,0.800 72.963 C 0.800 74.721,0.632 76.000,0.400 76.000 C 0.134 76.000,0.000 117.600,0.000 200.000 C 0.000 282.400,0.134 324.000,0.400 324.000 C 0.633 324.000,0.800 325.333,0.800 327.200 C 0.800 330.133,0.867 330.400,1.600 330.400 C 2.330 330.400,2.400 330.667,2.400 333.437 C 2.400 336.138,2.489 336.498,3.200 336.684 C 3.823 336.847,4.000 337.230,4.000 338.414 C 4.000 340.323,4.328 341.200,5.043 341.200 C 5.426 341.200,5.600 341.699,5.600 342.800 C 5.600 344.133,5.733 344.400,6.400 344.400 C 7.067 344.400,7.200 344.667,7.200 346.000 C 7.200 347.333,7.333 347.600,8.000 347.600 C 8.667 347.600,8.800 347.867,8.800 349.200 C 8.800 350.533,8.933 350.800,9.600 350.800 C 10.267 350.800,10.400 351.067,10.400 352.400 C 10.400 353.733,10.533 354.000,11.200 354.000 C 11.848 354.000,12.000 354.267,12.000 355.400 C 12.000 356.378,12.181 356.800,12.600 356.800 C 12.930 356.800,13.200 357.117,13.200 357.504 C 13.200 357.891,13.535 358.417,13.944 358.672 C 14.353 358.927,14.798 359.691,14.934 360.368 C 15.080 361.098,15.429 361.600,15.790 361.600 C 16.125 361.600,16.400 361.887,16.400 362.237 C 16.400 362.588,16.760 362.969,17.200 363.084 C 17.643 363.200,18.000 363.630,18.000 364.047 C 18.000 364.461,18.360 365.160,18.800 365.600 C 19.240 366.040,19.600 366.687,19.600 367.037 C 19.600 367.388,19.960 367.769,20.400 367.884 C 20.840 367.999,21.200 368.359,21.200 368.684 C 21.200 369.009,21.560 369.369,22.000 369.484 C 22.440 369.599,22.800 369.959,22.800 370.284 C 22.800 370.609,23.160 370.969,23.600 371.084 C 24.040 371.199,24.400 371.559,24.400 371.884 C 24.400 372.209,24.760 372.569,25.200 372.684 C 25.643 372.800,26.000 373.230,26.000 373.647 C 26.000 374.133,26.283 374.400,26.800 374.400 C 27.244 374.400,27.600 374.667,27.600 375.000 C 27.600 375.333,27.956 375.600,28.400 375.600 C 28.933 375.600,29.200 375.867,29.200 376.400 C 29.200 376.844,29.467 377.200,29.800 377.200 C 30.130 377.200,30.400 377.487,30.400 377.837 C 30.400 378.188,30.754 378.567,31.187 378.681 C 31.619 378.794,32.082 379.227,32.214 379.643 C 32.346 380.059,32.712 380.400,33.027 380.400 C 33.342 380.400,33.960 380.760,34.400 381.200 C 34.840 381.640,35.560 382.000,36.000 382.000 C 36.533 382.000,36.800 382.267,36.800 382.800 C 36.800 383.317,37.067 383.600,37.553 383.600 C 37.970 383.600,38.400 383.957,38.516 384.400 C 38.676 385.013,39.062 385.200,40.163 385.200 C 41.333 385.200,41.600 385.348,41.600 386.000 C 41.600 386.533,41.867 386.800,42.400 386.800 C 42.840 386.800,43.200 387.062,43.200 387.382 C 43.200 387.727,43.754 388.068,44.563 388.219 C 45.432 388.382,45.999 388.752,46.126 389.238 C 46.274 389.803,46.684 390.000,47.716 390.000 C 48.770 390.000,49.157 390.194,49.316 390.800 C 49.476 391.413,49.862 391.600,50.963 391.600 C 51.974 391.600,52.400 391.778,52.400 392.200 C 52.400 392.633,52.844 392.800,54.000 392.800 C 55.333 392.800,55.600 392.933,55.600 393.600 C 55.600 394.258,55.867 394.400,57.104 394.400 C 58.174 394.400,58.751 394.630,59.107 395.200 C 59.489 395.811,60.040 396.000,61.441 396.000 C 62.938 396.000,63.313 396.147,63.484 396.800 C 63.661 397.475,64.030 397.600,65.847 397.600 C 67.467 397.600,68.198 397.798,68.800 398.400 C 69.467 399.067,70.133 399.200,72.800 399.200 C 74.667 399.200,76.000 399.367,76.000 399.600 C 76.000 399.866,117.600 400.000,200.000 400.000 C 282.400 400.000,324.000 399.866,324.000 399.600 C 324.000 399.367,325.333 399.200,327.200 399.200 C 329.867 399.200,330.533 399.067,331.200 398.400 C 331.809 397.791,332.533 397.600,334.237 397.600 C 336.138 397.600,336.506 397.480,336.684 396.800 C 336.858 396.135,337.230 396.000,338.884 396.000 C 340.538 396.000,340.910 395.865,341.084 395.200 C 341.248 394.573,341.630 394.400,342.847 394.400 C 344.133 394.400,344.400 394.263,344.400 393.600 C 344.400 392.933,344.667 392.800,346.000 392.800 C 347.156 392.800,347.600 392.633,347.600 392.200 C 347.600 391.778,348.026 391.600,349.037 391.600 C 350.138 391.600,350.524 391.413,350.684 390.800 C 350.843 390.194,351.230 390.000,352.284 390.000 C 353.338 390.000,353.725 389.806,353.884 389.200 C 354.020 388.681,354.430 388.400,355.051 388.400 C 355.577 388.400,356.316 388.040,356.693 387.600 C 357.070 387.160,357.564 386.800,357.793 386.800 C 358.021 386.800,358.432 386.440,358.707 386.000 C 358.997 385.535,359.640 385.200,360.241 385.200 C 360.938 385.200,361.343 384.940,361.484 384.400 C 361.600 383.957,362.030 383.600,362.447 383.600 C 362.933 383.600,363.200 383.317,363.200 382.800 C 363.200 382.267,363.467 382.000,364.000 382.000 C 364.440 382.000,365.160 381.640,365.600 381.200 C 366.040 380.760,366.687 380.400,367.037 380.400 C 367.388 380.400,367.769 380.040,367.884 379.600 C 368.000 379.157,368.430 378.800,368.847 378.800 C 369.318 378.800,369.600 378.518,369.600 378.047 C 369.600 377.630,369.957 377.200,370.400 377.084 C 370.840 376.969,371.200 376.588,371.200 376.237 C 371.200 375.867,371.535 375.600,372.000 375.600 C 372.440 375.600,372.800 375.351,372.800 375.047 C 372.800 374.742,373.160 374.399,373.600 374.284 C 374.040 374.169,374.400 373.788,374.400 373.437 C 374.400 373.087,374.670 372.800,375.000 372.800 C 375.330 372.800,375.600 372.461,375.600 372.047 C 375.600 371.630,375.957 371.200,376.400 371.084 C 376.840 370.969,377.200 370.588,377.200 370.237 C 377.200 369.867,377.535 369.600,378.000 369.600 C 378.517 369.600,378.800 369.333,378.800 368.847 C 378.800 368.430,379.157 368.000,379.600 367.884 C 380.040 367.769,380.400 367.388,380.400 367.037 C 380.400 366.687,380.760 366.040,381.200 365.600 C 381.640 365.160,382.000 364.440,382.000 364.000 C 382.000 363.467,382.267 363.200,382.800 363.200 C 383.317 363.200,383.600 362.933,383.600 362.447 C 383.600 362.030,383.957 361.600,384.400 361.484 C 385.013 361.324,385.200 360.938,385.200 359.837 C 385.200 358.667,385.348 358.400,386.000 358.400 C 386.452 358.400,386.800 358.133,386.800 357.787 C 386.800 357.451,387.065 357.073,387.389 356.949 C 387.713 356.824,388.090 356.127,388.227 355.398 C 388.383 354.564,388.758 354.000,389.238 353.874 C 389.803 353.726,390.000 353.316,390.000 352.284 C 390.000 351.230,390.194 350.843,390.800 350.684 C 391.413 350.524,391.600 350.138,391.600 349.037 C 391.600 348.026,391.778 347.600,392.200 347.600 C 392.633 347.600,392.800 347.156,392.800 346.000 C 392.800 344.667,392.933 344.400,393.600 344.400 C 394.267 344.400,394.400 344.133,394.400 342.800 C 394.400 341.699,394.574 341.200,394.957 341.200 C 395.672 341.200,396.000 340.323,396.000 338.414 C 396.000 337.230,396.177 336.847,396.800 336.684 C 397.480 336.506,397.600 336.138,397.600 334.237 C 397.600 332.533,397.791 331.809,398.400 331.200 C 399.067 330.533,399.200 329.867,399.200 327.200 C 399.200 325.333,399.367 324.000,399.600 324.000 C 399.866 324.000,400.000 282.400,400.000 200.000 C 400.000 117.600,399.866 76.000,399.600 76.000 C 399.367 76.000,399.200 74.667,399.200 72.800 C 399.200 70.133,399.067 69.467,398.400 68.800 C 397.798 68.198,397.600 67.467,397.600 65.847 C 397.600 64.030,397.475 63.661,396.800 63.484 C 396.147 63.313,396.000 62.938,396.000 61.441 C 396.000 60.040,395.811 59.489,395.200 59.107 C 394.630 58.751,394.400 58.174,394.400 57.104 C 394.400 55.867,394.258 55.600,393.600 55.600 C 392.933 55.600,392.800 55.333,392.800 54.000 C 392.800 52.844,392.633 52.400,392.200 52.400 C 391.778 52.400,391.600 51.974,391.600 50.963 C 391.600 49.862,391.413 49.476,390.800 49.316 C 390.194 49.157,390.000 48.770,390.000 47.716 C 390.000 46.684,389.803 46.274,389.238 46.126 C 388.752 45.999,388.382 45.432,388.219 44.563 C 388.068 43.754,387.727 43.200,387.382 43.200 C 387.062 43.200,386.800 42.840,386.800 42.400 C 386.800 41.867,386.533 41.600,386.000 41.600 C 385.348 41.600,385.200 41.333,385.200 40.163 C 385.200 39.062,385.013 38.676,384.400 38.516 C 383.957 38.400,383.600 37.970,383.600 37.553 C 383.600 37.067,383.317 36.800,382.800 36.800 C 382.267 36.800,382.000 36.533,382.000 36.000 C 382.000 35.560,381.640 34.840,381.200 34.400 C 380.760 33.960,380.400 33.342,380.400 33.027 C 380.400 32.712,380.059 32.346,379.643 32.214 C 379.227 32.082,378.794 31.619,378.681 31.187 C 378.567 30.754,378.188 30.400,377.837 30.400 C 377.487 30.400,377.200 30.130,377.200 29.800 C 377.200 29.467,376.844 29.200,376.400 29.200 C 375.867 29.200,375.600 28.933,375.600 28.400 C 375.600 27.956,375.333 27.600,375.000 27.600 C 374.667 27.600,374.400 27.244,374.400 26.800 C 374.400 26.283,374.133 26.000,373.647 26.000 C 373.230 26.000,372.800 25.643,372.684 25.200 C 372.569 24.760,372.209 24.400,371.884 24.400 C 371.559 24.400,371.199 24.040,371.084 23.600 C 370.969 23.160,370.588 22.800,370.237 22.800 C 369.867 22.800,369.600 22.465,369.600 22.000 C 369.600 21.483,369.333 21.200,368.847 21.200 C 368.430 21.200,368.000 20.843,367.884 20.400 C 367.769 19.960,367.388 19.600,367.037 19.600 C 366.687 19.600,366.040 19.240,365.600 18.800 C 365.160 18.360,364.440 18.000,364.000 18.000 C 363.535 18.000,363.200 17.733,363.200 17.363 C 363.200 17.012,362.840 16.631,362.400 16.516 C 361.960 16.401,361.600 16.053,361.600 15.743 C 361.600 15.434,361.046 15.069,360.368 14.934 C 359.691 14.798,358.927 14.353,358.672 13.944 C 358.417 13.535,357.975 13.200,357.691 13.200 C 357.407 13.200,357.071 12.930,356.945 12.600 C 356.803 12.230,356.195 12.000,355.357 12.000 C 354.267 12.000,354.000 11.843,354.000 11.200 C 354.000 10.533,353.733 10.400,352.400 10.400 C 351.067 10.400,350.800 10.267,350.800 9.600 C 350.800 8.933,350.533 8.800,349.200 8.800 C 347.867 8.800,347.600 8.667,347.600 8.000 C 347.600 7.333,347.333 7.200,346.000 7.200 C 344.667 7.200,344.400 7.067,344.400 6.400 C 344.400 5.737,344.133 5.600,342.847 5.600 C 341.630 5.600,341.248 5.427,341.084 4.800 C 340.910 4.135,340.538 4.000,338.884 4.000 C 337.230 4.000,336.858 3.865,336.684 3.200 C 336.498 2.490,336.138 2.400,333.484 2.400 C 330.830 2.400,330.470 2.310,330.284 1.600 C 330.098 0.889,329.738 0.800,327.037 0.800 C 325.279 0.800,324.000 0.632,324.000 0.400 C 324.000 0.134,282.400 0.000,200.000 0.000 C 117.600 0.000,76.000 0.134,76.000 0.400 M293.200 49.979 C 296.845 50.453,302.832 51.773,303.874 52.331 C 304.354 52.589,305.055 52.800,305.430 52.800 C 306.106 52.800,308.426 53.767,311.279 55.237 C 312.093 55.657,312.997 56.000,313.288 56.000 C 313.580 56.000,314.727 56.598,315.837 57.330 C 316.947 58.061,318.142 58.769,318.492 58.903 C 319.107 59.139,324.097 62.526,325.088 63.380 C 325.356 63.611,326.413 64.520,327.437 65.400 C 332.129 69.432,338.000 75.976,338.000 77.173 C 338.000 77.408,338.150 77.600,338.333 77.600 C 338.516 77.600,339.191 78.455,339.834 79.500 C 340.476 80.545,341.230 81.760,341.509 82.200 C 341.788 82.640,342.285 83.540,342.614 84.200 C 342.943 84.860,343.382 85.670,343.591 86.000 C 344.305 87.132,346.000 91.077,346.013 91.639 C 346.020 91.947,346.290 92.549,346.613 92.976 C 346.936 93.404,347.201 94.124,347.202 94.576 C 347.204 95.029,347.470 95.908,347.794 96.530 C 348.118 97.151,348.674 99.221,349.030 101.130 C 349.385 103.038,349.828 105.410,350.014 106.400 C 350.485 108.906,350.472 289.519,350.001 292.800 C 349.500 296.290,348.209 302.272,347.585 304.000 C 347.306 304.770,346.769 306.210,346.390 307.200 C 346.012 308.190,345.586 309.495,345.444 310.100 C 345.301 310.705,345.008 311.200,344.792 311.200 C 344.577 311.200,344.399 311.425,344.398 311.700 C 344.396 312.657,342.147 316.707,338.992 321.438 C 333.074 330.310,323.436 338.839,314.400 343.200 C 312.970 343.890,311.517 344.604,311.172 344.786 C 310.362 345.213,305.972 346.880,303.400 347.738 C 301.207 348.469,296.063 349.501,292.000 350.024 C 288.636 350.457,111.893 350.455,108.200 350.022 C 102.153 349.313,96.156 347.841,92.540 346.179 C 91.846 345.861,91.100 345.600,90.880 345.600 C 89.571 345.600,78.737 339.426,75.443 336.803 C 69.877 332.370,64.475 326.656,61.260 321.800 C 55.892 313.694,53.211 307.491,50.885 297.800 L 49.829 293.400 49.701 202.371 C 49.620 145.045,49.716 110.094,49.962 107.971 C 50.452 103.726,51.702 97.673,52.325 96.526 C 52.586 96.046,52.800 95.323,52.800 94.920 C 52.800 94.518,53.160 93.516,53.600 92.696 C 54.040 91.875,54.398 90.977,54.395 90.701 C 54.390 90.076,57.673 83.620,59.228 81.200 C 59.864 80.210,60.556 79.014,60.766 78.542 C 60.976 78.070,61.295 77.620,61.474 77.542 C 61.653 77.464,62.340 76.591,63.000 75.602 C 64.553 73.273,73.273 64.553,75.602 63.000 C 76.591 62.340,77.464 61.653,77.542 61.474 C 77.620 61.295,78.070 60.976,78.542 60.766 C 79.014 60.556,80.210 59.864,81.200 59.228 C 83.620 57.673,90.076 54.390,90.701 54.395 C 90.977 54.398,91.875 54.040,92.696 53.600 C 93.516 53.160,94.434 52.800,94.734 52.800 C 95.034 52.800,95.846 52.544,96.540 52.231 C 97.837 51.646,103.066 50.481,106.600 49.990 C 109.499 49.588,290.107 49.577,293.200 49.979 " stroke="none" fill="#242c3c" fill-rule="evenodd"></path><path id="path4" d="M106.600 49.990 C 103.066 50.481,97.837 51.646,96.540 52.231 C 95.846 52.544,95.034 52.800,94.734 52.800 C 94.434 52.800,93.516 53.160,92.696 53.600 C 91.875 54.040,90.977 54.398,90.701 54.395 C 90.076 54.390,83.620 57.673,81.200 59.228 C 80.210 59.864,79.014 60.556,78.542 60.766 C 78.070 60.976,77.620 61.295,77.542 61.474 C 77.464 61.653,76.591 62.340,75.602 63.000 C 73.273 64.553,64.553 73.273,63.000 75.602 C 62.340 76.591,61.653 77.464,61.474 77.542 C 61.295 77.620,60.976 78.070,60.766 78.542 C 60.556 79.014,59.864 80.210,59.228 81.200 C 57.673 83.620,54.390 90.076,54.395 90.701 C 54.398 90.977,54.040 91.875,53.600 92.696 C 53.160 93.516,52.800 94.518,52.800 94.920 C 52.800 95.323,52.586 96.046,52.325 96.526 C 51.702 97.673,50.452 103.726,49.962 107.971 C 49.716 110.094,49.620 145.045,49.701 202.371 L 49.829 293.400 50.885 297.800 C 52.777 305.685,55.506 312.615,58.917 318.200 C 63.295 325.368,68.640 331.385,75.443 336.803 C 78.737 339.426,89.571 345.600,90.880 345.600 C 91.100 345.600,91.846 345.861,92.540 346.179 C 96.156 347.841,102.153 349.313,108.200 350.022 C 111.893 350.455,288.636 350.457,292.000 350.024 C 296.063 349.501,301.207 348.469,303.400 347.738 C 305.972 346.880,310.362 345.213,311.172 344.786 C 311.517 344.604,312.970 343.890,314.400 343.200 C 323.436 338.839,333.074 330.310,338.992 321.438 C 342.147 316.707,344.396 312.657,344.398 311.700 C 344.399 311.425,344.577 311.200,344.792 311.200 C 345.008 311.200,345.301 310.705,345.444 310.100 C 345.586 309.495,346.012 308.190,346.390 307.200 C 346.769 306.210,347.306 304.770,347.585 304.000 C 348.209 302.272,349.500 296.290,350.001 292.800 C 350.472 289.519,350.485 108.906,350.014 106.400 C 349.828 105.410,349.385 103.038,349.030 101.130 C 348.674 99.221,348.118 97.151,347.794 96.530 C 347.470 95.908,347.204 95.029,347.202 94.576 C 347.201 94.124,346.936 93.404,346.613 92.976 C 346.290 92.549,346.020 91.947,346.013 91.639 C 346.000 91.077,344.305 87.132,343.591 86.000 C 343.382 85.670,342.943 84.860,342.614 84.200 C 342.285 83.540,341.788 82.640,341.509 82.200 C 341.230 81.760,340.476 80.545,339.834 79.500 C 339.191 78.455,338.516 77.600,338.333 77.600 C 338.150 77.600,338.000 77.408,338.000 77.173 C 338.000 75.976,332.129 69.432,327.437 65.400 C 326.413 64.520,325.356 63.611,325.088 63.380 C 324.097 62.526,319.107 59.139,318.492 58.903 C 318.142 58.769,316.947 58.061,315.837 57.330 C 314.727 56.598,313.580 56.000,313.288 56.000 C 312.997 56.000,312.093 55.657,311.279 55.237 C 308.426 53.767,306.106 52.800,305.430 52.800 C 305.055 52.800,304.354 52.589,303.874 52.331 C 302.832 51.773,296.845 50.453,293.200 49.979 C 290.107 49.577,109.499 49.588,106.600 49.990 M292.400 51.000 C 293.610 51.325,295.230 51.594,296.000 51.598 C 298.662 51.611,306.385 54.034,311.556 56.477 C 313.401 57.349,315.291 58.236,315.756 58.448 C 320.870 60.787,330.815 69.113,334.828 74.417 C 335.363 75.123,336.070 75.995,336.400 76.354 C 337.563 77.618,340.895 82.775,341.599 84.400 C 341.837 84.950,342.745 86.817,343.616 88.548 C 344.487 90.279,345.200 91.872,345.200 92.088 C 345.200 92.303,345.462 93.046,345.782 93.740 C 346.513 95.322,347.601 99.634,348.874 106.000 C 349.700 110.128,349.852 286.594,349.034 290.800 C 348.712 292.450,348.326 294.880,348.175 296.200 C 348.023 297.520,347.712 298.960,347.482 299.400 C 347.253 299.840,346.842 301.280,346.569 302.600 C 345.656 307.017,342.265 314.510,338.923 319.493 C 337.975 320.906,337.200 322.189,337.200 322.342 C 337.200 322.496,336.885 322.913,336.500 323.268 C 336.115 323.622,335.080 324.787,334.200 325.856 C 333.320 326.925,331.520 328.880,330.200 330.200 C 328.880 331.520,326.925 333.320,325.856 334.200 C 324.787 335.080,323.622 336.115,323.268 336.500 C 322.913 336.885,322.480 337.200,322.307 337.200 C 322.134 337.200,321.139 337.796,320.096 338.525 C 318.066 339.943,315.622 341.334,314.000 341.992 C 313.450 342.215,312.730 342.579,312.400 342.799 C 312.070 343.020,311.350 343.380,310.800 343.599 C 310.250 343.819,309.530 344.165,309.200 344.370 C 308.284 344.937,304.877 346.005,302.200 346.565 C 300.880 346.841,299.440 347.259,299.000 347.493 C 298.560 347.728,296.580 348.120,294.600 348.365 C 292.620 348.609,290.100 348.976,289.000 349.181 C 286.106 349.718,114.563 349.706,111.200 349.168 C 109.770 348.939,106.980 348.525,105.000 348.247 C 103.020 347.970,101.040 347.554,100.600 347.323 C 100.160 347.091,98.902 346.772,97.805 346.612 C 96.708 346.453,95.352 346.085,94.791 345.796 C 94.231 345.506,93.104 345.143,92.286 344.990 C 91.469 344.836,90.800 344.558,90.800 344.372 C 90.800 344.185,90.080 343.816,89.200 343.553 C 88.320 343.289,87.600 342.936,87.600 342.768 C 87.600 342.600,86.925 342.245,86.100 341.980 C 85.275 341.716,84.330 341.273,84.000 340.997 C 83.670 340.721,82.995 340.371,82.500 340.220 C 82.005 340.070,81.600 339.807,81.600 339.637 C 81.600 339.467,81.143 339.120,80.585 338.866 C 80.027 338.612,79.352 338.223,79.085 338.003 C 78.818 337.783,77.160 336.447,75.400 335.033 C 71.189 331.649,68.613 329.170,66.016 326.000 C 64.844 324.570,63.770 323.310,63.628 323.200 C 63.486 323.090,62.797 322.100,62.096 321.000 C 61.395 319.900,60.636 318.783,60.411 318.517 C 60.185 318.251,60.000 317.870,60.000 317.671 C 60.000 317.471,59.665 316.879,59.255 316.354 C 58.845 315.829,58.374 314.950,58.208 314.400 C 58.041 313.850,57.671 313.130,57.384 312.800 C 57.097 312.470,56.741 311.712,56.592 311.116 C 56.443 310.520,56.069 309.823,55.761 309.567 C 55.452 309.311,55.194 308.719,55.186 308.251 C 55.179 307.783,54.825 306.680,54.400 305.800 C 53.975 304.920,53.621 303.796,53.614 303.302 C 53.606 302.807,53.263 301.367,52.852 300.102 C 52.440 298.836,51.880 296.270,51.607 294.400 C 51.334 292.530,50.966 290.010,50.789 288.800 C 50.152 284.439,50.330 111.177,50.975 107.911 C 51.291 106.310,51.740 103.920,51.973 102.600 C 56.311 78.011,78.383 55.916,102.600 51.920 C 103.920 51.703,105.990 51.289,107.200 51.002 C 110.701 50.170,289.303 50.169,292.400 51.000 " stroke="none" fill="#1c6c89" fill-rule="evenodd"></path></g></svg>