<svg version="1.1" id="Layer_1" xmlns="http://www.w3.org/2000/svg" xmlns:xlink="http://www.w3.org/1999/xlink" x="0px" y="0px"
	 width="100%" viewBox="0 0 256 256" enable-background="new 0 0 256 256" xml:space="preserve">
<path fill="#242938" opacity="1.000000" stroke="none" 
	d="
M257.000000,45.000000 
	C257.000000,100.687561 257.000000,156.375122 256.670105,212.642822 
	C255.664093,214.325485 254.781036,215.351791 254.342896,216.541916 
	C247.599579,234.859024 235.136719,247.426651 216.825195,254.246384 
	C215.405243,254.775208 214.268417,256.064270 213.000000,257.000000 
	C157.312439,257.000000 101.624878,257.000000 45.357227,256.670044 
	C43.509445,255.606049 42.315659,254.674881 40.962910,254.167603 
	C22.346680,247.186508 9.893533,234.244385 3.284020,215.545013 
	C2.828183,214.255356 1.775254,213.176758 1.000000,212.000000 
	C1.000000,156.979111 1.000000,101.958214 1.328727,46.342667 
	C2.180092,44.749962 2.838992,43.799313 3.205167,42.746822 
	C9.972150,23.296616 23.016590,10.129918 42.463043,3.280205 
	C43.750072,2.826869 44.825924,1.774004 46.000000,0.999999 
	C101.020897,1.000000 156.041794,1.000000 211.657318,1.328718 
	C212.930084,2.093382 213.553009,2.697932 214.294403,2.940664 
	C233.913208,9.363932 247.266373,22.243553 254.428970,41.611820 
	C254.899475,42.884144 256.125427,43.877098 257.000000,45.000000 
M49.306717,120.333275 
	C45.499584,120.564651 41.687923,121.037338 37.886467,120.966057 
	C33.179089,120.877800 30.958336,123.161819 31.157753,127.575676 
	C31.359329,132.037308 31.819218,136.525482 32.635929,140.914566 
	C36.372784,160.996735 48.145046,174.690781 66.554413,182.998230 
	C82.830925,190.343185 99.968391,190.235413 117.088097,188.067719 
	C155.074799,183.257858 183.956360,164.966629 200.568130,129.567429 
	C202.762711,124.890854 205.520096,123.061127 210.729401,122.651108 
	C219.970093,121.923782 228.204437,118.543823 233.174301,109.821465 
	C234.912460,106.770920 234.293472,104.337822 231.028366,103.636108 
	C225.565170,102.461998 219.958817,101.362648 214.412964,101.363808 
	C210.448151,101.364639 208.682373,100.412369 206.871704,96.815979 
	C204.381638,91.870171 200.995178,87.251595 197.353683,83.046211 
	C194.048523,79.229263 191.855545,79.808609 189.394058,84.354935 
	C184.888565,92.676521 184.858795,101.259590 188.407730,109.881935 
	C189.826828,113.329720 189.879333,116.161179 185.844589,117.513458 
	C176.753799,120.560326 167.511398,122.301315 157.963776,119.077354 
	C157.951263,113.713371 157.938751,108.349388 157.667206,102.298843 
	C155.656433,101.520241 153.698853,100.302467 151.624207,100.051094 
	C146.752045,99.460762 141.823914,99.332512 136.957077,98.079208 
	C136.944061,92.713562 136.931061,87.347923 136.927734,81.240837 
	C136.924515,80.499367 136.921310,79.757889 136.958160,78.077637 
	C136.943558,72.378960 136.928970,66.680290 136.655304,60.297203 
	C133.302307,56.061199 128.619415,58.154533 124.574387,58.048706 
	C112.997475,57.745846 112.992493,57.943264 112.960800,69.272400 
	C112.958008,70.269920 112.883987,71.272293 112.956490,72.264114 
	C113.319275,77.226936 110.936707,79.080315 106.100227,78.996643 
	C96.460526,78.829849 86.814163,79.067245 77.173370,78.934074 
	C72.681206,78.872017 71.055367,80.808113 70.947250,85.219910 
	C70.596626,99.528580 70.479652,99.411942 56.207905,100.091011 
	C54.125866,100.190079 52.124115,101.976501 50.044685,103.920624 
	C50.055988,109.286072 50.067291,114.651520 49.306717,120.333275 
z"/>
<path fill="#000000" opacity="1.000000" stroke="none" 
	d="
M45.531342,0.999999 
	C44.825924,1.774004 43.750072,2.826869 42.463043,3.280205 
	C23.016590,10.129918 9.972150,23.296616 3.205167,42.746822 
	C2.838992,43.799313 2.180092,44.749962 1.328727,45.874008 
	C1.000000,31.073294 1.000000,16.146585 1.000000,1.000000 
	C15.686830,1.000000 30.374756,1.000000 45.531342,0.999999 
z"/>
<path fill="#000000" opacity="1.000000" stroke="none" 
	d="
M257.000000,44.531342 
	C256.125427,43.877098 254.899475,42.884144 254.428970,41.611820 
	C247.266373,22.243553 233.913208,9.363932 214.294403,2.940664 
	C213.553009,2.697932 212.930084,2.093382 212.125977,1.328718 
	C226.925888,1.000000 241.851761,1.000000 257.000000,1.000000 
	C257.000000,15.353463 257.000000,29.708073 257.000000,44.531342 
z"/>
<path fill="#000000" opacity="1.000000" stroke="none" 
	d="
M1.000000,212.468658 
	C1.775254,213.176758 2.828183,214.255356 3.284020,215.545013 
	C9.893533,234.244385 22.346680,247.186508 40.962910,254.167603 
	C42.315659,254.674881 43.509445,255.606049 44.888569,256.670044 
	C30.405807,257.000000 15.811616,257.000000 1.000000,257.000000 
	C1.000000,242.313156 1.000000,227.625229 1.000000,212.468658 
z"/>
<path fill="#000000" opacity="1.000000" stroke="none" 
	d="
M213.468658,257.000000 
	C214.268417,256.064270 215.405243,254.775208 216.825195,254.246384 
	C235.136719,247.426651 247.599579,234.859024 254.342896,216.541916 
	C254.781036,215.351791 255.664093,214.325485 256.670105,213.111481 
	C257.000000,227.593369 257.000000,242.186722 257.000000,257.000000 
	C242.646515,257.000000 228.291916,257.000000 213.468658,257.000000 
z"/>
<path fill="#354549" opacity="1.000000" stroke="none" 
	d="
M136.918427,99.017250 
	C141.823914,99.332512 146.752045,99.460762 151.624207,100.051094 
	C153.698853,100.302467 155.656433,101.520241 157.431839,102.645248 
	C156.463562,102.994705 155.730637,102.997757 154.539856,102.892838 
	C149.585526,102.733154 145.068207,102.424538 140.605469,102.787392 
	C139.278717,102.895264 137.193405,104.773613 137.032974,106.040459 
	C136.555313,109.812531 136.646652,113.703400 136.992630,117.504448 
	C137.096161,118.641678 138.751923,120.530067 139.722534,120.546585 
	C144.836456,120.633575 149.958679,120.231735 155.434799,120.000252 
	C156.503296,120.005646 157.215042,120.010323 157.926773,120.014999 
	C167.511398,122.301315 176.753799,120.560326 185.844589,117.513458 
	C189.879333,116.161179 189.826828,113.329720 188.407730,109.881935 
	C184.858795,101.259590 184.888565,92.676521 189.394058,84.354935 
	C191.855545,79.808609 194.048523,79.229263 197.353683,83.046211 
	C200.995178,87.251595 204.381638,91.870171 206.871704,96.815979 
	C208.682373,100.412369 210.448151,101.364639 214.412964,101.363808 
	C219.958817,101.362648 225.565170,102.461998 231.028366,103.636108 
	C234.293472,104.337822 234.912460,106.770920 233.174301,109.821465 
	C228.204437,118.543823 219.970093,121.923782 210.729401,122.651108 
	C205.520096,123.061127 202.762711,124.890854 200.568130,129.567429 
	C183.956360,164.966629 155.074799,183.257858 117.088097,188.067719 
	C99.968391,190.235413 82.830925,190.343185 66.554413,182.998230 
	C48.145046,174.690781 36.372784,160.996735 32.635929,140.914566 
	C31.819218,136.525482 31.359329,132.037308 31.157753,127.575676 
	C30.958336,123.161819 33.179089,120.877800 37.886467,120.966057 
	C41.687923,121.037338 45.499584,120.564651 50.035389,120.171448 
	C51.452927,120.006134 52.141788,120.002655 53.197990,120.213486 
	C58.355282,120.522362 63.153091,120.792351 67.929207,120.578262 
	C69.014633,120.529602 70.776146,118.927078 70.955841,117.831398 
	C73.252800,103.825729 72.131523,102.528336 58.367550,102.622520 
	C56.556469,102.634911 54.746834,102.857933 52.579330,102.985260 
	C51.509827,102.985458 50.797520,102.983810 50.085213,102.982155 
	C52.124115,101.976501 54.125866,100.190079 56.207905,100.091011 
	C70.479652,99.411942 70.596626,99.528580 70.947250,85.219910 
	C71.055367,80.808113 72.681206,78.872017 77.173370,78.934074 
	C86.814163,79.067245 96.460526,78.829849 106.100227,78.996643 
	C110.936707,79.080315 113.319275,77.226936 112.956490,72.264114 
	C112.883987,71.272293 112.958008,70.269920 112.960800,69.272400 
	C112.992493,57.943264 112.997475,57.745846 124.574387,58.048706 
	C128.619415,58.154533 133.302307,56.061199 136.423965,60.642555 
	C135.467163,60.990356 134.741699,60.992802 133.555481,60.897980 
	C127.521019,60.800713 121.947319,60.800713 116.168762,60.800713 
	C116.168762,67.035583 116.168762,72.595001 116.168762,78.887558 
	C122.204491,78.887558 127.963203,78.887558 134.122223,78.903244 
	C135.321045,78.951424 136.119568,78.983925 136.918091,79.016418 
	C136.921310,79.757889 136.924515,80.499367 136.562408,81.614388 
	C135.472534,81.989822 134.748001,81.991707 133.562286,81.895538 
	C127.370316,81.853394 121.639511,81.909309 115.548637,81.963959 
	C114.468468,81.971458 113.748375,81.980232 112.570190,81.875336 
	C106.384003,81.832008 100.655907,81.902344 94.569763,81.968018 
	C93.495583,81.967163 92.779442,81.970955 91.600052,81.874588 
	C89.810341,81.728455 88.481888,81.610657 87.157738,81.647476 
	C71.210785,82.090935 74.336876,78.460632 73.931602,95.991905 
	C73.866638,98.802231 75.018425,99.844032 77.745117,99.797989 
	C82.390671,99.719536 87.039337,99.824890 92.128525,99.856979 
	C93.453957,99.848732 94.337555,99.836510 95.190994,99.853561 
	C95.160828,99.882835 95.102303,99.822495 95.081894,100.188995 
	C95.019814,101.288330 94.978157,102.021164 94.919464,103.237114 
	C94.906860,108.206772 94.654831,112.717674 95.077026,117.164566 
	C95.198608,118.445129 97.077232,119.932396 98.492386,120.603401 
	C99.717346,121.184212 101.427025,120.750435 102.922455,120.751907 
	C113.039818,120.761864 113.084846,120.760437 113.020447,110.809792 
	C112.964401,102.148651 114.123169,102.687347 105.112038,102.582932 
	C103.291527,102.561836 101.473030,102.367195 99.434151,102.053360 
	C98.706070,101.247589 98.197449,100.641014 98.164612,99.950577 
	C103.295837,99.874084 107.951279,99.881462 113.066757,99.892441 
	C114.446487,99.886017 115.366180,99.875999 116.735138,99.843857 
	C122.837029,99.547508 128.489655,99.273293 134.490036,98.999481 
	C135.531342,99.005676 136.224884,99.011467 136.918427,99.017250 
M35.193863,138.712448 
	C36.241375,142.729614 36.750057,146.989761 38.432384,150.720688 
	C44.741268,164.711914 43.684479,163.247681 58.947327,162.971085 
	C67.219170,162.251892 75.491020,161.532700 85.165565,160.691528 
	C83.268303,162.280930 82.359314,163.042404 80.685829,163.826462 
	C76.128426,164.582184 71.571014,165.337921 66.081001,165.982285 
	C60.276478,165.982285 54.471958,165.982285 47.322678,165.982285 
	C63.707836,182.397293 82.351112,187.309387 104.034363,186.153000 
	C113.879044,184.757935 123.958611,184.269592 133.522903,181.792084 
	C158.831223,175.236252 178.981720,161.175385 192.858810,137.781769 
	C194.664688,134.411957 196.896576,131.195557 198.178024,127.636894 
	C200.173065,122.096603 202.803787,119.314484 209.549744,119.502586 
	C218.468430,119.751282 226.345276,116.169548 231.119034,107.191185 
	C224.661499,103.553177 218.214294,103.431946 211.534683,104.817520 
	C209.477554,105.244240 207.365936,105.408363 205.412659,104.870064 
	C205.370163,95.615608 200.345291,89.314041 193.272385,83.226860 
	C187.083145,95.013763 187.646729,105.367279 195.118408,115.227051 
	C189.929779,120.473701 179.699478,123.898590 168.743835,123.923103 
	C145.952988,123.974113 123.161934,123.917618 100.371040,123.952682 
	C81.243614,123.982117 62.116299,124.078766 42.104572,124.026154 
	C34.369625,123.946152 34.337799,123.947235 34.596596,131.530884 
	C34.669476,133.666595 34.988758,135.793900 35.193863,138.712448 
M119.623344,102.598831 
	C118.385048,103.497658 116.150818,104.321609 116.076668,105.307953 
	C115.708084,110.210770 115.908447,115.156357 115.908447,120.359207 
	C122.140854,120.359207 127.825195,120.359207 133.693100,120.359207 
	C133.805420,118.679062 133.949646,117.379601 133.970444,116.078171 
	C134.186249,102.569618 134.180740,102.569527 119.623344,102.598831 
M73.970070,118.108376 
	C74.729668,118.969940 75.457550,120.541954 76.254005,120.577507 
	C81.337402,120.804382 86.435890,120.693069 92.034027,120.693069 
	C92.034027,115.113319 92.174896,110.167549 91.907784,105.243912 
	C91.858063,104.327515 90.262741,102.884033 89.221336,102.724533 
	C74.929932,100.535736 73.927879,101.429756 73.943237,115.680321 
	C73.943771,116.178223 73.947388,116.676132 73.970070,118.108376 
z"/>
<path fill="#354245" opacity="1.000000" stroke="none" 
	d="
M134.016235,60.995247 
	C134.741699,60.992802 135.467163,60.990356 136.553497,60.984764 
	C136.928970,66.680290 136.943558,72.378960 136.938126,78.547028 
	C136.119568,78.983925 135.321045,78.951424 134.204834,78.448776 
	C133.930176,72.317490 133.973206,66.656372 134.016235,60.995247 
z"/>
<path fill="#354245" opacity="1.000000" stroke="none" 
	d="
M157.945282,119.546173 
	C157.215042,120.010323 156.503296,120.005646 155.398529,119.533852 
	C155.002899,113.711426 155.000305,108.356110 154.997726,103.000809 
	C155.730637,102.997757 156.463562,102.994705 157.561356,102.988525 
	C157.938751,108.349388 157.951263,113.713371 157.945282,119.546173 
z"/>
<path fill="#354245" opacity="1.000000" stroke="none" 
	d="
M52.830654,119.999176 
	C52.141788,120.002655 51.452927,120.006134 50.421326,120.013290 
	C50.067291,114.651520 50.055988,109.286072 50.064949,103.451385 
	C50.797520,102.983810 51.509827,102.985458 52.588215,103.453857 
	C52.913082,109.280121 52.871868,114.639648 52.830654,119.999176 
z"/>
<path fill="#354245" opacity="1.000000" stroke="none" 
	d="
M136.937744,98.548233 
	C136.224884,99.011467 135.531342,99.005676 134.447906,98.533539 
	C134.046478,92.709328 134.034973,87.351463 134.023453,81.993599 
	C134.748001,81.991707 135.472534,81.989822 136.557571,81.985107 
	C136.931061,87.347923 136.944061,92.713562 136.937744,98.548233 
z"/>
<path fill="#1D91B4" opacity="1.000000" stroke="none" 
	d="
M81.450325,163.803894 
	C82.359314,163.042404 83.268303,162.280930 85.165565,160.691528 
	C75.491020,161.532700 67.219170,162.251892 58.361847,162.604095 
	C51.577229,155.080841 45.893124,147.630798 44.442387,138.023773 
	C72.839676,138.003876 100.766701,137.964050 128.693634,137.997879 
	C143.485291,138.015793 158.276764,138.161713 172.912430,138.530426 
	C171.195374,140.275269 169.779892,141.944519 168.051147,143.172928 
	C143.618622,160.534225 117.261536,172.540573 86.338654,172.142914 
	C86.159439,172.095032 85.799614,172.004623 85.697906,171.682709 
	C84.214241,168.841827 82.832283,166.322861 81.450325,163.803894 
M94.905388,156.360016 
	C93.095955,154.671600 91.286522,152.983170 89.477097,151.294754 
	C88.782440,152.973434 87.380852,154.722672 87.539848,156.316177 
	C87.873993,159.665100 90.777794,159.863953 94.905388,156.360016 
z"/>
<path fill="#37B0D8" opacity="1.000000" stroke="none" 
	d="
M173.068329,138.249832 
	C158.276764,138.161713 143.485291,138.015793 128.693634,137.997879 
	C100.766701,137.964050 72.839676,138.003876 44.256042,137.928482 
	C43.599396,137.843887 43.215588,137.676117 43.187077,137.240341 
	C43.102024,132.584930 43.045479,128.365295 42.988937,124.145660 
	C62.116299,124.078766 81.243614,123.982117 100.371040,123.952682 
	C123.161934,123.917618 145.952988,123.974113 168.743835,123.923103 
	C179.699478,123.898590 189.929779,120.473701 195.118408,115.227051 
	C187.646729,105.367279 187.083145,95.013763 193.272385,83.226860 
	C200.345291,89.314041 205.370163,95.615608 205.229477,105.636826 
	C201.744186,110.727524 198.744186,115.330223 195.070786,119.311600 
	C189.223511,125.649101 182.927460,131.572556 176.445282,137.724884 
	C175.069000,137.935699 174.068665,138.092758 173.068329,138.249832 
z"/>
<path fill="#1B81A5" opacity="1.000000" stroke="none" 
	d="
M172.912430,138.530426 
	C174.068665,138.092758 175.069000,137.935699 176.925674,137.793610 
	C182.654221,137.963028 187.526428,138.117462 192.398636,138.271896 
	C178.981720,161.175385 158.831223,175.236252 133.522903,181.792084 
	C123.958611,184.269592 113.879044,184.757935 103.359299,185.848663 
	C97.295448,181.093140 91.906662,176.641968 86.517876,172.190781 
	C117.261536,172.540573 143.618622,160.534225 168.051147,143.172928 
	C169.779892,141.944519 171.195374,140.275269 172.912430,138.530426 
z"/>
<path fill="#229EC6" opacity="1.000000" stroke="none" 
	d="
M192.628723,138.026825 
	C187.526428,138.117462 182.654221,137.963028 177.301605,137.739868 
	C182.927460,131.572556 189.223511,125.649101 195.070786,119.311600 
	C198.744186,115.330223 201.744186,110.727524 205.162781,106.048157 
	C207.365936,105.408363 209.477554,105.244240 211.534683,104.817520 
	C218.214294,103.431946 224.661499,103.553177 231.119034,107.191185 
	C226.345276,116.169548 218.468430,119.751282 209.549744,119.502586 
	C202.803787,119.314484 200.173065,122.096603 198.178024,127.636894 
	C196.896576,131.195557 194.664688,134.411957 192.628723,138.026825 
z"/>
<path fill="#BAD6D4" opacity="1.000000" stroke="none" 
	d="
M86.338654,172.142914 
	C91.906662,176.641968 97.295448,181.093140 102.914330,185.807526 
	C82.351112,187.309387 63.707836,182.397293 47.322678,165.982285 
	C54.471958,165.982285 60.276478,165.982285 66.741806,166.313477 
	C73.534950,168.431335 79.667282,170.217987 85.799614,172.004623 
	C85.799614,172.004623 86.159439,172.095032 86.338654,172.142914 
z"/>
<path fill="#34B9DC" opacity="1.000000" stroke="none" 
	d="
M112.606712,99.888832 
	C107.951279,99.881462 103.295837,99.874084 97.914841,99.875793 
	C96.493622,99.864082 95.797966,99.843285 95.102303,99.822495 
	C95.102303,99.822495 95.160828,99.882835 95.115479,99.402435 
	C95.022690,93.272240 94.975243,87.622459 94.927803,81.972672 
	C100.655907,81.902344 106.384003,81.832008 112.557068,82.343773 
	C112.870262,88.580193 112.738487,94.234512 112.606712,99.888832 
z"/>
<path fill="#34B9DC" opacity="1.000000" stroke="none" 
	d="
M133.555481,60.897980 
	C133.973206,66.656372 133.930176,72.317490 133.804535,78.433090 
	C127.963203,78.887558 122.204491,78.887558 116.168762,78.887558 
	C116.168762,72.595001 116.168762,67.035583 116.168762,60.800713 
	C121.947319,60.800713 127.521019,60.800713 133.555481,60.897980 
z"/>
<path fill="#23A1C0" opacity="1.000000" stroke="none" 
	d="
M133.562286,81.895538 
	C134.034973,87.351463 134.046478,92.709328 134.100128,98.533134 
	C128.489655,99.273293 122.837029,99.547508 116.641953,99.392548 
	C116.035896,93.297310 115.972298,87.631271 115.908707,81.965225 
	C121.639511,81.909309 127.370316,81.853394 133.562286,81.895538 
z"/>
<path fill="#23A1C0" opacity="1.000000" stroke="none" 
	d="
M91.686691,99.853020 
	C87.039337,99.824890 82.390671,99.719536 77.745117,99.797989 
	C75.018425,99.844032 73.866638,98.802231 73.931602,95.991905 
	C74.336876,78.460632 71.210785,82.090935 87.157738,81.647476 
	C88.481888,81.610657 89.810341,81.728455 91.589516,82.343933 
	C91.923721,88.559982 91.805206,94.206497 91.686691,99.853020 
z"/>
<path fill="#23A1C0" opacity="1.000000" stroke="none" 
	d="
M154.539856,102.892838 
	C155.000305,108.356110 155.002899,113.711426 155.041748,119.533134 
	C149.958679,120.231735 144.836456,120.633575 139.722534,120.546585 
	C138.751923,120.530067 137.096161,118.641678 136.992630,117.504448 
	C136.646652,113.703400 136.555313,109.812531 137.032974,106.040459 
	C137.193405,104.773613 139.278717,102.895264 140.605469,102.787392 
	C145.068207,102.424538 149.585526,102.733154 154.539856,102.892838 
z"/>
<path fill="#34B9DC" opacity="1.000000" stroke="none" 
	d="
M120.108994,102.593971 
	C134.180740,102.569527 134.186249,102.569618 133.970444,116.078171 
	C133.949646,117.379601 133.805420,118.679062 133.693100,120.359207 
	C127.825195,120.359207 122.140854,120.359207 115.908447,120.359207 
	C115.908447,115.156357 115.708084,110.210770 116.076668,105.307953 
	C116.150818,104.321609 118.385048,103.497658 120.108994,102.593971 
z"/>
<path fill="#23A1C0" opacity="1.000000" stroke="none" 
	d="
M99.653610,102.252571 
	C101.473030,102.367195 103.291527,102.561836 105.112038,102.582932 
	C114.123169,102.687347 112.964401,102.148651 113.020447,110.809792 
	C113.084846,120.760437 113.039818,120.761864 102.922455,120.751907 
	C101.427025,120.750435 99.717346,121.184212 98.492386,120.603401 
	C97.077232,119.932396 95.198608,118.445129 95.077026,117.164566 
	C94.654831,112.717674 94.906860,108.206772 95.311768,103.175720 
	C97.031944,102.505005 98.342773,102.378784 99.653610,102.252571 
z"/>
<path fill="#34B9DB" opacity="1.000000" stroke="none" 
	d="
M73.959824,117.641205 
	C73.947388,116.676132 73.943771,116.178223 73.943237,115.680321 
	C73.927879,101.429756 74.929932,100.535736 89.221336,102.724533 
	C90.262741,102.884033 91.858063,104.327515 91.907784,105.243912 
	C92.174896,110.167549 92.034027,115.113319 92.034027,120.693069 
	C86.435890,120.693069 81.337402,120.804382 76.254005,120.577507 
	C75.457550,120.541954 74.729668,118.969940 73.959824,117.641205 
z"/>
<path fill="#23A1C0" opacity="1.000000" stroke="none" 
	d="
M53.197990,120.213493 
	C52.871868,114.639648 52.913082,109.280121 52.945412,103.451996 
	C54.746834,102.857933 56.556469,102.634911 58.367550,102.622520 
	C72.131523,102.528336 73.252800,103.825729 70.955841,117.831398 
	C70.776146,118.927078 69.014633,120.529602 67.929207,120.578262 
	C63.153091,120.792351 58.355282,120.522362 53.197990,120.213493 
z"/>
<path fill="#1B80A3" opacity="1.000000" stroke="none" 
	d="
M43.215588,137.676117 
	C43.215588,137.676117 43.599396,137.843887 43.785736,137.939178 
	C45.893124,147.630798 51.577229,155.080841 57.909134,162.541931 
	C43.684479,163.247681 44.741268,164.711914 38.432384,150.720688 
	C36.750057,146.989761 36.241375,142.729614 35.632309,138.328461 
	C38.452370,137.855026 40.833977,137.765564 43.215588,137.676117 
z"/>
<path fill="#22A0C8" opacity="1.000000" stroke="none" 
	d="
M43.187077,137.240341 
	C40.833977,137.765564 38.452370,137.855026 35.632893,137.934753 
	C34.988758,135.793900 34.669476,133.666595 34.596596,131.530884 
	C34.337799,123.947235 34.369625,123.946152 42.546753,124.085907 
	C43.045479,128.365295 43.102024,132.584930 43.187077,137.240341 
z"/>
<path fill="#CDE7E7" opacity="1.000000" stroke="none" 
	d="
M85.697906,171.682709 
	C79.667282,170.217987 73.534950,168.431335 67.208115,166.369171 
	C71.571014,165.337921 76.128426,164.582184 81.068077,163.815186 
	C82.832283,166.322861 84.214241,168.841827 85.697906,171.682709 
z"/>
<path fill="#355057" opacity="1.000000" stroke="none" 
	d="
M92.128525,99.856979 
	C91.805206,94.206497 91.923721,88.559982 92.052773,82.444107 
	C92.779442,81.970955 93.495583,81.967163 94.569763,81.968018 
	C94.975243,87.622459 95.022690,93.272240 95.145645,99.373154 
	C94.337555,99.836510 93.453957,99.848732 92.128525,99.856979 
z"/>
<path fill="#355057" opacity="1.000000" stroke="none" 
	d="
M115.548637,81.963959 
	C115.972298,87.631271 116.035896,93.297310 116.192680,99.414665 
	C115.366180,99.875999 114.446487,99.886017 113.066757,99.892441 
	C112.738487,94.234512 112.870262,88.580193 113.015152,82.457443 
	C113.748375,81.980232 114.468468,81.971458 115.548637,81.963959 
z"/>
<path fill="#364142" opacity="1.000000" stroke="none" 
	d="
M99.434151,102.053360 
	C98.342773,102.378784 97.031944,102.505005 95.328804,102.692612 
	C94.978157,102.021164 95.019814,101.288330 95.081894,100.188995 
	C95.797966,99.843285 96.493622,99.864082 97.439056,99.959656 
	C98.197449,100.641014 98.706070,101.247589 99.434151,102.053360 
z"/>
<path fill="#4A595C" opacity="1.000000" stroke="none" 
	d="
M94.790665,156.675064 
	C90.777794,159.863953 87.873993,159.665100 87.539848,156.316177 
	C87.380852,154.722672 88.782440,152.973434 89.477097,151.294754 
	C91.286522,152.983170 93.095955,154.671600 94.790665,156.675064 
z"/>
</svg>