<svg version="1.1" id="Layer_1" xmlns="http://www.w3.org/2000/svg" xmlns:xlink="http://www.w3.org/1999/xlink" x="0px" y="0px"
	 width="100%" viewBox="0 0 256 256" enable-background="new 0 0 256 256" xml:space="preserve">
<path fill="#242938" opacity="1.000000" stroke="none" 
	d="
M1.000002,212.000000 
	C1.000000,156.979111 1.000000,101.958214 1.350227,46.389061 
	C2.090934,45.339264 2.668460,44.895817 2.844871,44.327801 
	C9.304001,23.530365 22.920952,9.825664 43.568718,2.997789 
	C44.497765,2.690569 45.194866,1.681933 46.000000,1.000000 
	C101.020897,1.000000 156.041794,1.000000 211.610901,1.350217 
	C212.661179,2.091038 213.105240,2.670504 213.673615,2.844943 
	C233.759506,9.009444 247.203934,22.091936 254.456741,41.732193 
	C254.912460,42.966236 256.134491,43.917290 257.000000,45.000000 
	C257.000000,100.687561 257.000000,156.375122 256.653564,212.602203 
	C255.708694,214.090302 254.911682,214.967529 254.541306,215.998093 
	C247.785248,234.796936 235.074387,247.617661 216.279907,254.451996 
	C215.041489,254.902298 214.086716,256.132538 213.000000,257.000000 
	C157.312439,257.000000 101.624878,257.000000 45.397820,256.653534 
	C43.756779,255.646774 42.727592,254.788254 41.542889,254.355789 
	C22.399904,247.367935 9.652262,234.196152 3.109744,214.921646 
	C2.740666,213.834320 1.718309,212.968765 1.000002,212.000000 
M134.171585,29.169559 
	C129.020691,29.376369 123.819778,29.195087 118.726807,29.851431 
	C78.229607,35.070381 49.642727,56.652042 35.556007,94.766510 
	C21.266687,133.429138 29.477104,169.037338 57.751110,198.749237 
	C99.120094,242.222031 169.824966,238.172134 207.197159,191.130722 
	C240.263245,149.509460 234.835556,89.000229 194.935272,54.050316 
	C177.776596,39.020504 157.712631,31.068523 134.171585,29.169559 
z"/>
<path fill="#000000" opacity="1.000000" stroke="none" 
	d="
M45.531342,1.000000 
	C45.194866,1.681933 44.497765,2.690569 43.568718,2.997789 
	C22.920952,9.825664 9.304001,23.530365 2.844871,44.327801 
	C2.668460,44.895817 2.090934,45.339264 1.350227,45.920403 
	C1.000000,31.073294 1.000000,16.146585 1.000000,1.000000 
	C15.686830,1.000000 30.374756,1.000000 45.531342,1.000000 
z"/>
<path fill="#000000" opacity="1.000000" stroke="none" 
	d="
M257.000000,44.531342 
	C256.134491,43.917290 254.912460,42.966236 254.456741,41.732193 
	C247.203934,22.091936 233.759506,9.009444 213.673615,2.844943 
	C213.105240,2.670504 212.661179,2.091038 212.079559,1.350217 
	C226.925888,1.000000 241.851761,1.000000 257.000000,1.000000 
	C257.000000,15.353463 257.000000,29.708073 257.000000,44.531342 
z"/>
<path fill="#000000" opacity="1.000000" stroke="none" 
	d="
M1.000002,212.468658 
	C1.718309,212.968765 2.740666,213.834320 3.109744,214.921646 
	C9.652262,234.196152 22.399904,247.367935 41.542889,254.355789 
	C42.727592,254.788254 43.756779,255.646774 44.929161,256.653534 
	C30.405807,257.000000 15.811616,257.000000 1.000000,257.000000 
	C1.000000,242.313156 1.000000,227.625229 1.000002,212.468658 
z"/>
<path fill="#000000" opacity="1.000000" stroke="none" 
	d="
M213.468658,257.000000 
	C214.086716,256.132538 215.041489,254.902298 216.279907,254.451996 
	C235.074387,247.617661 247.785248,234.796936 254.541306,215.998093 
	C254.911682,214.967529 255.708694,214.090302 256.653564,213.070862 
	C257.000000,227.593369 257.000000,242.186722 257.000000,257.000000 
	C242.646515,257.000000 228.291916,257.000000 213.468658,257.000000 
z"/>
<path fill="#06998B" opacity="1.000000" stroke="none" 
	d="
M134.633789,29.203245 
	C157.712631,31.068523 177.776596,39.020504 194.935272,54.050316 
	C234.835556,89.000229 240.263245,149.509460 207.197159,191.130722 
	C169.824966,238.172134 99.120094,242.222031 57.751110,198.749237 
	C29.477104,169.037338 21.266687,133.429138 35.556007,94.766510 
	C49.642727,56.652042 78.229607,35.070381 118.726807,29.851431 
	C123.819778,29.195087 129.020691,29.376369 134.633789,29.203245 
M128.819275,197.347504 
	C144.051285,169.779907 159.283279,142.212296 174.968735,113.824020 
	C159.332275,113.824020 144.766739,113.824020 129.774582,113.824020 
	C131.319977,94.417915 132.825211,75.516350 134.330429,56.614788 
	C133.887253,56.531425 133.444077,56.448063 133.000900,56.364700 
	C116.929909,85.416328 100.858925,114.467964 84.294632,144.411346 
	C100.092636,144.411346 114.656006,144.411346 129.615768,144.411346 
	C128.014511,164.025208 126.454857,183.129333 124.895218,202.233475 
	C125.189102,202.312637 125.482994,202.391815 125.776886,202.470993 
	C126.663788,200.971771 127.550690,199.472549 128.819275,197.347504 
z"/>
<path fill="#FCFEFE" opacity="1.000000" stroke="none" 
	d="
M128.628433,197.660416 
	C127.550690,199.472549 126.663788,200.971771 125.776886,202.470993 
	C125.482994,202.391815 125.189102,202.312637 124.895218,202.233475 
	C126.454857,183.129333 128.014511,164.025208 129.615768,144.411346 
	C114.656006,144.411346 100.092636,144.411346 84.294632,144.411346 
	C100.858925,114.467964 116.929909,85.416328 133.000900,56.364700 
	C133.444077,56.448063 133.887253,56.531425 134.330429,56.614788 
	C132.825211,75.516350 131.319977,94.417915 129.774582,113.824020 
	C144.766739,113.824020 159.332275,113.824020 174.968735,113.824020 
	C159.283279,142.212296 144.051285,169.779907 128.628433,197.660416 
z"/>
</svg>