<svg version="1.1" id="Layer_1" xmlns="http://www.w3.org/2000/svg" xmlns:xlink="http://www.w3.org/1999/xlink" x="0px" y="0px"
	 width="100%" viewBox="0 0 256 256" enable-background="new 0 0 256 256" xml:space="preserve">
<path fill="#242938" opacity="1.000000" stroke="none" 
	d="
M257.000000,45.000000 
	C257.000000,100.687561 257.000000,156.375122 256.671936,212.647186 
	C255.726105,214.189987 254.901184,215.072968 254.521301,216.117752 
	C247.733353,234.786758 235.077713,247.562592 216.406815,254.419739 
	C215.127853,254.889465 214.129074,256.122131 213.000000,257.000000 
	C157.312439,257.000000 101.624878,257.000000 45.352859,256.671906 
	C43.500721,255.608093 42.307285,254.674652 40.954136,254.166504 
	C22.350863,247.180634 9.897909,234.245880 3.285471,215.556625 
	C2.827915,214.263428 1.775684,213.180634 1.000002,212.000000 
	C1.000000,156.979111 1.000000,101.958214 1.326368,46.337654 
	C2.176691,44.739319 2.837020,43.788204 3.204384,42.734913 
	C9.981896,23.302763 23.014553,10.132193 42.451439,3.281247 
	C43.741985,2.826366 44.822041,1.774301 46.000000,1.000000 
	C101.020897,1.000000 156.041794,1.000000 211.662323,1.326355 
	C212.941299,2.088398 213.565643,2.691322 214.307983,2.935364 
	C233.903900,9.377545 247.263687,22.244108 254.428467,41.602207 
	C254.900436,42.877380 256.125336,43.873878 257.000000,45.000000 
M88.269684,85.252861 
	C88.241737,85.422821 88.213799,85.592773 87.807732,86.041580 
	C87.682442,86.620293 87.557144,87.199005 87.211098,88.274353 
	C87.160645,88.448357 87.110199,88.622353 86.611206,89.243309 
	C76.741867,120.128624 78.409294,149.901535 95.638145,177.965942 
	C103.250595,190.366013 112.488777,201.429779 125.228065,210.255295 
	C126.049957,212.861618 126.871849,215.467926 127.819778,218.962097 
	C128.241287,223.315216 128.662811,227.668350 129.084335,232.021469 
	C129.728348,232.013641 130.372360,232.005829 131.016388,231.998001 
	C131.387344,228.567719 131.553726,225.099594 132.179276,221.716370 
	C133.025818,217.137817 134.224716,212.624405 135.869614,208.059998 
	C142.128876,202.209320 149.356598,197.097382 154.480164,190.380417 
	C176.969803,160.896561 182.375198,128.274811 170.235489,92.348137 
	C169.631027,90.999367 168.816376,89.704491 168.454544,88.293503 
	C164.773621,73.939240 156.855667,61.907722 147.708908,50.594585 
	C141.057388,42.367661 132.547150,35.570122 128.483505,25.364981 
	C128.442764,25.262661 127.920082,25.352253 127.372604,25.352253 
	C127.440529,25.980785 127.507103,26.596775 127.146652,27.482317 
	C127.003975,27.572004 126.861290,27.661694 126.828819,27.808661 
	C126.828819,27.808661 126.784355,27.606215 126.390297,28.662987 
	C126.271034,29.019518 126.151764,29.376047 125.671043,29.872438 
	C125.488159,30.208540 125.305267,30.544641 124.606331,31.331610 
	C120.318268,35.676319 116.030205,40.021030 111.166969,44.754265 
	C107.655006,49.610954 104.143036,54.467644 100.101265,59.784214 
	C97.692368,64.136200 95.283478,68.488182 92.476990,73.416832 
	C91.299187,76.665382 90.121384,79.913925 88.633743,83.482368 
	C88.565491,83.908691 88.497246,84.335007 88.269684,85.252861 
z"/>
<path fill="#000000" opacity="1.000000" stroke="none" 
	d="
M45.531342,1.000000 
	C44.822041,1.774301 43.741985,2.826366 42.451439,3.281247 
	C23.014553,10.132193 9.981896,23.302763 3.204384,42.734913 
	C2.837020,43.788204 2.176691,44.739319 1.326368,45.868996 
	C1.000000,31.073294 1.000000,16.146585 1.000000,1.000000 
	C15.686830,1.000000 30.374756,1.000000 45.531342,1.000000 
z"/>
<path fill="#000000" opacity="1.000000" stroke="none" 
	d="
M257.000000,44.531342 
	C256.125336,43.873878 254.900436,42.877380 254.428467,41.602207 
	C247.263687,22.244108 233.903900,9.377545 214.307983,2.935364 
	C213.565643,2.691322 212.941299,2.088398 212.130981,1.326355 
	C226.925888,1.000000 241.851761,1.000000 257.000000,1.000000 
	C257.000000,15.353463 257.000000,29.708073 257.000000,44.531342 
z"/>
<path fill="#000000" opacity="1.000000" stroke="none" 
	d="
M1.000002,212.468658 
	C1.775684,213.180634 2.827915,214.263428 3.285471,215.556625 
	C9.897909,234.245880 22.350863,247.180634 40.954136,254.166504 
	C42.307285,254.674652 43.500721,255.608093 44.884201,256.671906 
	C30.405807,257.000000 15.811616,257.000000 1.000000,257.000000 
	C1.000000,242.313156 1.000000,227.625229 1.000002,212.468658 
z"/>
<path fill="#000000" opacity="1.000000" stroke="none" 
	d="
M213.468658,257.000000 
	C214.129074,256.122131 215.127853,254.889465 216.406815,254.419739 
	C235.077713,247.562592 247.733353,234.786758 254.521301,216.117752 
	C254.901184,215.072968 255.726105,214.189987 256.671936,213.115845 
	C257.000000,227.593369 257.000000,242.186722 257.000000,257.000000 
	C242.646515,257.000000 228.291916,257.000000 213.468658,257.000000 
z"/>
<path fill="#429634" opacity="1.000000" stroke="none" 
	d="
M170.475143,92.977127 
	C182.375198,128.274811 176.969803,160.896561 154.480164,190.380417 
	C149.356598,197.097382 142.128876,202.209320 135.458130,207.893127 
	C134.735565,207.444656 134.424454,207.163055 133.991089,206.538239 
	C132.217392,200.199234 130.565933,194.203445 129.032455,187.828796 
	C129.400650,185.595352 129.650848,183.740753 129.912430,181.424866 
	C130.269073,169.287094 130.614319,157.610641 130.974243,145.472412 
	C130.951569,133.268936 130.914230,121.527237 130.887680,109.628174 
	C130.898483,109.470810 130.915115,109.155777 130.933456,108.692780 
	C131.042267,105.167343 131.132736,102.104919 131.608368,98.976013 
	C144.820740,96.932060 157.647934,94.954590 170.475143,92.977127 
z"/>
<path fill="#44A238" opacity="1.000000" stroke="none" 
	d="
M124.769028,209.611282 
	C112.488777,201.429779 103.250595,190.366013 95.638145,177.965942 
	C78.409294,149.901535 76.741867,120.128624 86.857727,89.371307 
	C87.494919,91.451935 87.681252,93.472748 88.306580,95.347084 
	C99.637161,129.309143 110.994614,163.262344 122.455559,197.180527 
	C123.165001,199.280060 124.777596,201.074432 125.972183,203.391098 
	C125.572594,205.718033 125.170807,207.664658 124.769028,209.611282 
z"/>
<path fill="#469E37" opacity="1.000000" stroke="none" 
	d="
M170.355316,92.662628 
	C157.647934,94.954590 144.820740,96.932060 131.550598,98.623199 
	C131.037674,97.866470 130.967667,97.396080 130.855713,96.593094 
	C130.491562,77.448112 130.291367,58.632233 129.753571,39.826015 
	C129.632843,35.604271 128.331512,31.416286 127.573677,27.212763 
	C127.507103,26.596775 127.440529,25.980785 127.372604,25.352253 
	C127.920082,25.352253 128.442764,25.262661 128.483505,25.364981 
	C132.547150,35.570122 141.057388,42.367661 147.708908,50.594585 
	C156.855667,61.907722 164.773621,73.939240 168.454544,88.293503 
	C168.816376,89.704491 169.631027,90.999367 170.355316,92.662628 
z"/>
<path fill="#4FAA42" opacity="1.000000" stroke="none" 
	d="
M130.959564,145.934189 
	C130.614319,157.610641 130.269073,169.287094 129.705368,181.176208 
	C127.942451,178.283218 126.011742,175.307800 124.913757,172.051605 
	C114.864006,142.247803 104.929550,112.404915 95.055069,82.542480 
	C94.019424,79.410484 93.586922,76.079063 92.874580,72.840164 
	C95.283478,68.488182 97.692368,64.136200 100.496002,59.837700 
	C109.103783,84.296318 117.268066,108.718048 125.574806,133.091248 
	C127.068771,137.474792 129.149658,141.658310 130.959564,145.934189 
z"/>
<path fill="#4BA73D" opacity="1.000000" stroke="none" 
	d="
M92.675781,73.128494 
	C93.586922,76.079063 94.019424,79.410484 95.055069,82.542480 
	C104.929550,112.404915 114.864006,142.247803 124.913757,172.051605 
	C126.011742,175.307800 127.942451,178.283218 129.693985,181.637512 
	C129.650848,183.740753 129.400650,185.595352 128.794861,188.120804 
	C127.616165,193.531372 126.793076,198.271088 125.969986,203.010788 
	C124.777596,201.074432 123.165001,199.280060 122.455559,197.180527 
	C110.994614,163.262344 99.637161,129.309143 88.306580,95.347084 
	C87.681252,93.472748 87.494919,91.451935 87.082001,89.147827 
	C87.110199,88.622353 87.160645,88.448357 87.413322,87.836304 
	C87.805649,86.853081 87.995750,86.307899 88.185852,85.762726 
	C88.213799,85.592773 88.241737,85.422821 88.434555,84.818291 
	C88.714142,83.976639 88.828857,83.569550 88.943581,83.162468 
	C90.121384,79.913925 91.299187,76.665382 92.675781,73.128494 
z"/>
<path fill="#57AD47" opacity="1.000000" stroke="none" 
	d="
M130.974243,145.472412 
	C129.149658,141.658310 127.068771,137.474792 125.574806,133.091248 
	C117.268066,108.718048 109.103783,84.296318 100.760910,59.607761 
	C104.143036,54.467644 107.655006,49.610954 111.541740,44.986259 
	C117.165810,61.018322 122.368301,76.834328 127.735237,92.594330 
	C128.285355,94.209755 129.819901,95.489944 130.897659,96.925682 
	C130.967667,97.396080 131.037674,97.866470 131.165436,98.689682 
	C131.132736,102.104919 131.042267,105.167343 130.928574,108.770538 
	C130.905350,109.311302 130.876877,109.785538 130.876877,109.785538 
	C130.914230,121.527237 130.951569,133.268936 130.974243,145.472412 
z"/>
<path fill="#60B04F" opacity="1.000000" stroke="none" 
	d="
M130.855713,96.593094 
	C129.819901,95.489944 128.285355,94.209755 127.735237,92.594330 
	C122.368301,76.834328 117.165810,61.018322 111.829330,44.791996 
	C116.030205,40.021030 120.318268,35.676319 125.012573,30.994570 
	C125.623367,30.349211 125.827934,30.040894 126.032494,29.732576 
	C126.151764,29.376047 126.271034,29.019518 126.579651,28.162243 
	C126.768997,27.661497 126.718605,27.751385 126.718605,27.751385 
	C126.861290,27.661694 127.003975,27.572004 127.360168,27.347540 
	C128.331512,31.416286 129.632843,35.604271 129.753571,39.826015 
	C130.291367,58.632233 130.491562,77.448112 130.855713,96.593094 
z"/>
<path fill="#A4AB85" opacity="1.000000" stroke="none" 
	d="
M125.972183,203.391098 
	C126.793076,198.271088 127.616165,193.531372 128.676849,188.499664 
	C130.565933,194.203445 132.217392,200.199234 133.707687,206.755280 
	C131.595596,210.901764 129.644669,214.488007 127.693741,218.074249 
	C126.871849,215.467926 126.049957,212.861618 124.998543,209.933289 
	C125.170807,207.664658 125.572594,205.718033 125.972183,203.391098 
z"/>
<path fill="#C5C4AC" opacity="1.000000" stroke="none" 
	d="
M127.756760,218.518173 
	C129.644669,214.488007 131.595596,210.901764 133.829926,207.098480 
	C134.424454,207.163055 134.735565,207.444656 135.159561,207.904663 
	C134.224716,212.624405 133.025818,217.137817 132.179276,221.716370 
	C131.553726,225.099594 131.387344,228.567719 131.016388,231.998001 
	C130.372360,232.005829 129.728348,232.013641 129.084335,232.021469 
	C128.662811,227.668350 128.241287,223.315216 127.756760,218.518173 
z"/>
<path fill="#44A238" opacity="1.000000" stroke="none" 
	d="
M87.996796,85.902153 
	C87.995750,86.307899 87.805649,86.853081 87.523697,87.587982 
	C87.557144,87.199005 87.682442,86.620293 87.996796,85.902153 
z"/>
<path fill="#469E37" opacity="1.000000" stroke="none" 
	d="
M125.851768,29.802507 
	C125.827934,30.040894 125.623367,30.349211 125.270599,30.769138 
	C125.305267,30.544641 125.488159,30.208540 125.851768,29.802507 
z"/>
<path fill="#44A238" opacity="1.000000" stroke="none" 
	d="
M88.788658,83.322418 
	C88.828857,83.569550 88.714142,83.976639 88.514206,84.572525 
	C88.497246,84.335007 88.565491,83.908691 88.788658,83.322418 
z"/>
<path fill="#469E37" opacity="1.000000" stroke="none" 
	d="
M126.773712,27.780022 
	C126.718605,27.751385 126.768997,27.661497 126.776672,27.633856 
	C126.784355,27.606215 126.828819,27.808661 126.773712,27.780022 
z"/>
<path fill="#60B04F" opacity="1.000000" stroke="none" 
	d="
M130.887680,109.628174 
	C130.876877,109.785538 130.905350,109.311302 130.910233,109.233536 
	C130.915115,109.155777 130.898483,109.470810 130.887680,109.628174 
z"/>
</svg>