<svg version="1.1" id="Layer_1" xmlns="http://www.w3.org/2000/svg" xmlns:xlink="http://www.w3.org/1999/xlink" x="0px" y="0px"
	 width="100%" viewBox="0 0 256 256" enable-background="new 0 0 256 256" xml:space="preserve">
<path fill="#252938" opacity="1.000000" stroke="none" 
	d="
M257.000000,45.000000 
	C257.000000,100.687561 257.000000,156.375122 256.670715,212.644318 
	C255.664627,214.328461 254.780563,215.354599 254.342133,216.544876 
	C247.596573,234.857361 235.135834,247.424500 216.827744,254.244904 
	C215.406891,254.774246 214.269257,256.063782 213.000000,257.000000 
	C157.312439,257.000000 101.624878,257.000000 45.355721,256.670654 
	C43.506527,255.606445 42.313019,254.674072 40.960144,254.166504 
	C22.348503,247.183990 9.896028,234.244186 3.285091,215.548950 
	C2.828607,214.258041 1.775600,213.178070 1.000001,212.000000 
	C1.000000,156.979111 1.000000,101.958214 1.327933,46.340893 
	C2.179120,44.746227 2.838778,43.795490 3.205405,42.742706 
	C9.976418,23.299421 23.016472,10.131409 42.459129,3.281115 
	C43.747402,2.827214 44.824615,1.774298 46.000000,1.000000 
	C101.020897,1.000000 156.041794,1.000000 211.659088,1.327924 
	C212.934052,2.091774 213.557449,2.695838 214.299179,2.939089 
	C233.908890,9.370019 247.264954,22.244297 254.428299,41.608761 
	C254.899323,42.882046 256.125214,43.876076 257.000000,45.000000 
M176.887741,211.019302 
	C192.302902,199.094559 201.265762,183.195541 206.448578,164.349594 
	C206.903351,170.680023 207.358124,177.010452 207.883942,184.329880 
	C220.461319,165.890015 225.191483,146.521698 221.825165,125.446976 
	C218.709915,105.944099 210.525238,88.729149 197.018890,73.329071 
	C190.705643,96.476852 171.893524,109.337288 155.443481,102.597176 
	C176.416351,93.707527 185.359329,82.588837 183.820816,67.315979 
	C182.420517,53.414963 172.604156,41.020893 162.228561,39.048885 
	C160.108582,42.179867 158.803314,45.902645 156.183487,47.619564 
	C149.875519,51.753517 146.063522,56.602776 147.975342,64.910019 
	C146.456635,64.477173 145.512604,64.301826 144.642288,63.946102 
	C129.842239,57.896862 114.568314,55.858723 98.657715,57.893227 
	C88.124054,59.240177 78.236732,62.249832 70.815285,69.976921 
	C63.166553,77.940666 54.783978,83.621231 43.631046,85.426537 
	C37.031563,86.494774 32.150238,95.766884 35.311203,100.501579 
	C38.554638,105.359787 42.737980,109.595490 46.562229,114.058838 
	C48.467606,116.282654 50.489784,118.406387 52.641430,120.776184 
	C52.997440,120.458420 54.204987,119.380608 55.710957,118.036430 
	C55.874016,120.628754 55.995808,122.564987 56.188774,125.632774 
	C57.854275,123.665085 58.711304,122.261040 59.924667,121.313126 
	C61.635803,119.976364 63.483326,118.324005 65.492096,117.932167 
	C94.252991,112.321960 123.075264,131.218872 129.925430,160.023926 
	C130.305634,161.622604 130.493973,163.266922 130.946320,165.911392 
	C129.449753,164.540558 128.877304,163.960526 128.248825,163.449417 
	C123.703949,159.753372 122.315186,160.084671 119.197060,165.069870 
	C117.770927,167.349930 115.908165,169.356888 113.491570,172.450043 
	C113.164467,169.212433 112.991051,167.496048 112.708778,164.702164 
	C111.431442,167.031708 110.547440,168.384888 109.914772,169.846832 
	C108.100243,174.039856 105.410454,175.669830 100.847763,173.752136 
	C95.455589,171.485809 93.135735,167.823044 94.088730,163.035126 
	C94.504807,160.944748 94.766685,157.089935 94.048965,156.819214 
	C91.467957,155.845703 88.189590,155.223206 85.629028,155.988358 
	C79.238037,157.898102 75.979630,165.389587 78.436852,172.976898 
	C79.975311,177.727325 82.867859,182.039200 85.145767,186.533905 
	C84.075531,186.991211 82.644997,187.602463 80.556290,188.494934 
	C94.950645,195.930267 108.884102,196.921631 122.955284,190.291901 
	C136.928391,183.708389 145.028809,172.093353 149.317123,157.434006 
	C152.319168,176.433685 145.860306,191.577789 131.163879,203.512833 
	C131.432739,203.876862 131.701584,204.240891 131.970444,204.604919 
	C138.141998,202.859680 144.313568,201.114456 150.898178,199.841751 
	C151.037994,199.997345 151.177826,200.152954 151.050323,200.924911 
	C143.315887,208.062744 135.581436,215.200562 127.805588,222.376602 
	C152.258453,219.006531 170.835541,206.066757 184.331039,185.064926 
	C184.856323,185.385727 185.381607,185.706543 185.906891,186.027344 
	C182.372818,194.174088 178.838745,202.320831 175.054810,210.949661 
	C175.120544,211.202713 175.186279,211.455750 175.252014,211.708801 
	C175.588058,211.560669 175.924103,211.412537 176.887741,211.019302 
M149.714737,49.307011 
	C151.129471,48.159607 152.817566,47.215935 153.872528,45.800385 
	C154.717468,44.666626 155.432907,42.786751 155.095261,41.538364 
	C153.897278,37.108929 147.883636,34.517899 142.533798,36.288719 
	C151.686249,43.162800 141.845291,51.291897 144.155548,58.661758 
	C145.871384,55.641903 147.525787,52.730152 149.714737,49.307011 
z"/>
<path fill="#000000" opacity="1.000000" stroke="none" 
	d="
M45.531342,1.000000 
	C44.824615,1.774298 43.747402,2.827214 42.459129,3.281115 
	C23.016472,10.131409 9.976418,23.299421 3.205405,42.742706 
	C2.838778,43.795490 2.179120,44.746227 1.327933,45.872234 
	C1.000000,31.073294 1.000000,16.146585 1.000000,1.000000 
	C15.686830,1.000000 30.374756,1.000000 45.531342,1.000000 
z"/>
<path fill="#000000" opacity="1.000000" stroke="none" 
	d="
M257.000000,44.531342 
	C256.125214,43.876076 254.899323,42.882046 254.428299,41.608761 
	C247.264954,22.244297 233.908890,9.370019 214.299179,2.939089 
	C213.557449,2.695838 212.934052,2.091774 212.127747,1.327924 
	C226.925888,1.000000 241.851761,1.000000 257.000000,1.000000 
	C257.000000,15.353463 257.000000,29.708073 257.000000,44.531342 
z"/>
<path fill="#000000" opacity="1.000000" stroke="none" 
	d="
M1.000001,212.468658 
	C1.775600,213.178070 2.828607,214.258041 3.285091,215.548950 
	C9.896028,234.244186 22.348503,247.183990 40.960144,254.166504 
	C42.313019,254.674072 43.506527,255.606445 44.887062,256.670654 
	C30.405807,257.000000 15.811616,257.000000 1.000000,257.000000 
	C1.000000,242.313156 1.000000,227.625229 1.000001,212.468658 
z"/>
<path fill="#000000" opacity="1.000000" stroke="none" 
	d="
M213.468658,257.000000 
	C214.269257,256.063782 215.406891,254.774246 216.827744,254.244904 
	C235.135834,247.424500 247.596573,234.857361 254.342133,216.544876 
	C254.780563,215.354599 255.664627,214.328461 256.670715,213.112976 
	C257.000000,227.593369 257.000000,242.186722 257.000000,257.000000 
	C242.646515,257.000000 228.291916,257.000000 213.468658,257.000000 
z"/>
<path fill="#DF234E" opacity="1.000000" stroke="none" 
	d="
M150.485123,199.369232 
	C144.313568,201.114456 138.141998,202.859680 131.970444,204.604919 
	C131.701584,204.240891 131.432739,203.876862 131.163879,203.512833 
	C145.860306,191.577789 152.319168,176.433685 149.317123,157.434006 
	C145.028809,172.093353 136.928391,183.708389 122.955284,190.291901 
	C108.884102,196.921631 94.950645,195.930267 80.556290,188.494934 
	C82.644997,187.602463 84.075531,186.991211 85.145767,186.533905 
	C82.867859,182.039200 79.975311,177.727325 78.436852,172.976898 
	C75.979630,165.389587 79.238037,157.898102 85.629028,155.988358 
	C88.189590,155.223206 91.467957,155.845703 94.048965,156.819214 
	C94.766685,157.089935 94.504807,160.944748 94.088730,163.035126 
	C93.135735,167.823044 95.455589,171.485809 100.847763,173.752136 
	C105.410454,175.669830 108.100243,174.039856 109.914772,169.846832 
	C110.547440,168.384888 111.431442,167.031708 112.708778,164.702164 
	C112.991051,167.496048 113.164467,169.212433 113.491570,172.450043 
	C115.908165,169.356888 117.770927,167.349930 119.197060,165.069870 
	C122.315186,160.084671 123.703949,159.753372 128.248825,163.449417 
	C128.877304,163.960526 129.449753,164.540558 130.946320,165.911392 
	C130.493973,163.266922 130.305634,161.622604 129.925430,160.023926 
	C123.075264,131.218872 94.252991,112.321960 65.492096,117.932167 
	C63.483326,118.324005 61.635803,119.976364 59.924667,121.313126 
	C58.711304,122.261040 57.854275,123.665085 56.188774,125.632774 
	C55.995808,122.564987 55.874016,120.628754 55.710957,118.036430 
	C54.204987,119.380608 52.997440,120.458420 52.641430,120.776184 
	C50.489784,118.406387 48.467606,116.282654 46.562229,114.058838 
	C42.737980,109.595490 38.554638,105.359787 35.311203,100.501579 
	C32.150238,95.766884 37.031563,86.494774 43.631046,85.426537 
	C54.783978,83.621231 63.166553,77.940666 70.815285,69.976921 
	C78.236732,62.249832 88.124054,59.240177 98.657715,57.893227 
	C114.568314,55.858723 129.842239,57.896862 144.642288,63.946102 
	C145.512604,64.301826 146.456635,64.477173 147.975342,64.910019 
	C146.063522,56.602776 149.875519,51.753517 156.183487,47.619564 
	C158.803314,45.902645 160.108582,42.179867 162.228561,39.048885 
	C172.604156,41.020893 182.420517,53.414963 183.820816,67.315979 
	C185.359329,82.588837 176.416351,93.707527 155.443481,102.597176 
	C171.893524,109.337288 190.705643,96.476852 197.018890,73.329071 
	C210.525238,88.729149 218.709915,105.944099 221.825165,125.446976 
	C225.191483,146.521698 220.461319,165.890015 207.883942,184.329880 
	C207.358124,177.010452 206.903351,170.680023 206.448578,164.349594 
	C201.265762,183.195541 192.302902,199.094559 176.336090,210.941406 
	C175.624542,210.731537 175.464615,210.599548 175.304672,210.467560 
	C178.838745,202.320831 182.372818,194.174088 185.906891,186.027344 
	C185.381607,185.706543 184.856323,185.385727 184.331039,185.064926 
	C170.835541,206.066757 152.258453,219.006531 127.805588,222.376602 
	C135.581436,215.200562 143.315887,208.062744 151.379547,200.446640 
	C151.300888,199.768661 150.893005,199.568954 150.485123,199.369232 
z"/>
<path fill="#D8234D" opacity="1.000000" stroke="none" 
	d="
M149.447464,49.562706 
	C147.525787,52.730152 145.871384,55.641903 144.155548,58.661758 
	C141.845291,51.291897 151.686249,43.162800 142.533798,36.288719 
	C147.883636,34.517899 153.897278,37.108929 155.095261,41.538364 
	C155.432907,42.786751 154.717468,44.666626 153.872528,45.800385 
	C152.817566,47.215935 151.129471,48.159607 149.447464,49.562706 
z"/>
<path fill="#DF234E" opacity="1.000000" stroke="none" 
	d="
M176.022308,211.063950 
	C175.924103,211.412537 175.588058,211.560669 175.252014,211.708801 
	C175.186279,211.455750 175.120544,211.202713 175.179749,210.708618 
	C175.464615,210.599548 175.624542,210.731537 176.022308,211.063950 
z"/>
<path fill="#252938" opacity="1.000000" stroke="none" 
	d="
M150.691650,199.605499 
	C150.893005,199.568954 151.300888,199.768661 151.513214,200.138458 
	C151.177826,200.152954 151.037994,199.997345 150.691650,199.605499 
z"/>
</svg>