<svg version="1.1" id="Layer_1" xmlns="http://www.w3.org/2000/svg" xmlns:xlink="http://www.w3.org/1999/xlink" x="0px" y="0px"
	 width="100%" viewBox="0 0 256 256" enable-background="new 0 0 256 256" xml:space="preserve">
<path fill="#252A38" opacity="1.000000" stroke="none" 
	d="
M0.999999,212.000000 
	C1.000000,156.979111 1.000000,101.958214 1.360903,46.413795 
	C1.982900,45.696918 2.405549,45.553055 2.482110,45.303162 
	C9.085372,23.750271 22.865942,9.341594 44.614914,2.782086 
	C45.202335,2.604920 45.543827,1.612335 46.000000,1.000000 
	C101.020897,1.000000 156.041794,1.000000 211.586182,1.360900 
	C212.443771,2.070715 212.718735,2.622221 213.120468,2.739498 
	C233.768295,8.767168 247.335297,22.197556 254.668396,42.243435 
	C255.056595,43.304600 256.205322,44.087536 257.000000,45.000000 
	C257.000000,100.687561 257.000000,156.375122 256.644958,212.579117 
	C255.821732,213.733994 255.161163,214.305740 254.913406,215.020584 
	C248.171722,234.472488 235.190292,247.718033 215.769516,254.664764 
	C214.704208,255.045822 213.916779,256.203705 213.000000,257.000000 
	C157.312439,257.000000 101.624878,257.000000 45.420895,256.644958 
	C44.424725,255.872787 44.012775,255.259506 43.455425,255.066864 
	C22.924074,247.970123 9.039320,234.425613 2.782187,213.388214 
	C2.607466,212.800766 1.612491,212.457260 0.999999,212.000000 
M57.505459,155.957367 
	C59.276161,158.764328 60.833519,161.736389 62.855213,164.349136 
	C70.790047,174.603729 78.611313,174.737442 87.006813,164.999405 
	C91.774826,159.468948 96.641235,154.023300 101.307419,148.716766 
	C105.377327,149.853134 108.964806,150.854797 112.591820,151.867508 
	C108.730103,157.811340 108.494759,157.873093 99.196655,160.191376 
	C95.398666,161.138351 90.293434,161.663803 90.353004,166.652359 
	C90.411934,171.586319 95.363586,172.664261 99.369431,173.890564 
	C99.843147,174.035568 100.357178,174.042908 100.843483,174.153702 
	C109.590157,176.146515 117.564980,174.227951 124.920967,168.953842 
	C125.601807,180.494583 125.944801,191.612320 127.012276,202.660049 
	C127.811058,210.927017 131.195160,218.154922 139.197128,222.020096 
	C151.840897,228.127380 171.167953,219.685745 175.077179,206.204971 
	C176.594803,200.971481 177.281723,195.476166 178.084198,190.061172 
	C179.263321,182.104706 180.206665,174.113281 181.220276,166.367355 
	C195.108017,167.848679 207.496597,166.232300 217.360199,156.236465 
	C218.710861,154.867691 219.752441,151.725143 219.079681,150.252182 
	C218.439529,148.850601 215.421753,148.240250 213.346252,147.886047 
	C211.799622,147.622131 210.097519,148.409348 208.449234,148.575699 
	C202.815201,149.144363 197.119629,150.354813 191.772797,147.886307 
	C191.772797,147.139236 191.712234,146.941055 191.782364,146.816406 
	C192.350647,145.806122 192.927917,144.800171 193.531097,143.810364 
	C205.126450,124.782188 213.712204,104.535500 217.576233,82.514801 
	C221.322433,61.165554 219.376953,50.714687 195.199600,39.098312 
	C180.952744,32.253193 165.790833,33.367012 150.729721,37.002144 
	C148.259079,37.598461 145.514053,37.592670 142.972351,37.267365 
	C131.875870,35.847172 121.095665,36.014133 110.976425,41.749493 
	C109.665619,42.492435 107.581749,42.258472 105.943764,41.973095 
	C96.639809,40.352150 87.421814,37.642082 78.063950,37.049496 
	C58.172585,35.789875 44.058254,45.139858 39.563313,62.411205 
	C37.711876,69.525139 36.747372,77.346680 37.577164,84.594765 
	C40.384888,109.119789 46.624966,132.847839 57.505459,155.957367 
z"/>
<path fill="#000000" opacity="1.000000" stroke="none" 
	d="
M45.531342,1.000000 
	C45.543827,1.612335 45.202335,2.604920 44.614914,2.782086 
	C22.865942,9.341594 9.085372,23.750271 2.482110,45.303162 
	C2.405549,45.553055 1.982900,45.696918 1.360903,45.945137 
	C1.000000,31.073294 1.000000,16.146585 1.000000,1.000000 
	C15.686830,1.000000 30.374756,1.000000 45.531342,1.000000 
z"/>
<path fill="#000000" opacity="1.000000" stroke="none" 
	d="
M257.000000,44.531342 
	C256.205322,44.087536 255.056595,43.304600 254.668396,42.243435 
	C247.335297,22.197556 233.768295,8.767168 213.120468,2.739498 
	C212.718735,2.622221 212.443771,2.070715 212.054840,1.360900 
	C226.925888,1.000000 241.851761,1.000000 257.000000,1.000000 
	C257.000000,15.353463 257.000000,29.708073 257.000000,44.531342 
z"/>
<path fill="#000000" opacity="1.000000" stroke="none" 
	d="
M0.999999,212.468658 
	C1.612491,212.457260 2.607466,212.800766 2.782187,213.388214 
	C9.039320,234.425613 22.924074,247.970123 43.455425,255.066864 
	C44.012775,255.259506 44.424725,255.872787 44.952236,256.644958 
	C30.405807,257.000000 15.811616,257.000000 1.000000,257.000000 
	C1.000000,242.313156 1.000000,227.625229 0.999999,212.468658 
z"/>
<path fill="#000000" opacity="1.000000" stroke="none" 
	d="
M213.468658,257.000000 
	C213.916779,256.203705 214.704208,255.045822 215.769516,254.664764 
	C235.190292,247.718033 248.171722,234.472488 254.913406,215.020584 
	C255.161163,214.305740 255.821732,213.733994 256.644958,213.047775 
	C257.000000,227.593369 257.000000,242.186722 257.000000,257.000000 
	C242.646515,257.000000 228.291916,257.000000 213.468658,257.000000 
z"/>
<path fill="#F5F7F9" opacity="1.000000" stroke="none" 
	d="
M57.306377,155.642776 
	C46.624966,132.847839 40.384888,109.119789 37.577164,84.594765 
	C36.747372,77.346680 37.711876,69.525139 39.563313,62.411205 
	C44.058254,45.139858 58.172585,35.789875 78.063950,37.049496 
	C87.421814,37.642082 96.639809,40.352150 105.943764,41.973095 
	C107.581749,42.258472 109.665619,42.492435 110.976425,41.749493 
	C121.095665,36.014133 131.875870,35.847172 142.972351,37.267365 
	C145.514053,37.592670 148.259079,37.598461 150.729721,37.002144 
	C165.790833,33.367012 180.952744,32.253193 195.199600,39.098312 
	C219.376953,50.714687 221.322433,61.165554 217.576233,82.514801 
	C213.712204,104.535500 205.126450,124.782188 193.531097,143.810364 
	C192.927917,144.800171 192.350647,145.806122 191.782364,146.816406 
	C191.712234,146.941055 191.772797,147.139236 191.772797,147.886307 
	C197.119629,150.354813 202.815201,149.144363 208.449234,148.575699 
	C210.097519,148.409348 211.799622,147.622131 213.346252,147.886047 
	C215.421753,148.240250 218.439529,148.850601 219.079681,150.252182 
	C219.752441,151.725143 218.710861,154.867691 217.360199,156.236465 
	C207.496597,166.232300 195.108017,167.848679 181.220276,166.367355 
	C180.206665,174.113281 179.263321,182.104706 178.084198,190.061172 
	C177.281723,195.476166 176.594803,200.971481 175.077179,206.204971 
	C171.167953,219.685745 151.840897,228.127380 139.197128,222.020096 
	C131.195160,218.154922 127.811058,210.927017 127.012276,202.660049 
	C125.944801,191.612320 125.601807,180.494583 124.920967,168.953842 
	C117.564980,174.227951 109.590157,176.146515 100.843483,174.153702 
	C100.357178,174.042908 99.843147,174.035568 99.369431,173.890564 
	C95.363586,172.664261 90.411934,171.586319 90.353004,166.652359 
	C90.293434,161.663803 95.398666,161.138351 99.196655,160.191376 
	C108.494759,157.873093 108.730103,157.811340 112.591820,151.867508 
	C108.964806,150.854797 105.377327,149.853134 101.307419,148.716766 
	C96.641235,154.023300 91.774826,159.468948 87.006813,164.999405 
	C78.611313,174.737442 70.790047,174.603729 62.855213,164.349136 
	C60.833519,161.736389 59.276161,158.764328 57.306377,155.642776 
M94.334526,86.003494 
	C100.435005,84.629509 106.480003,82.566925 112.651123,82.069733 
	C119.193253,81.542648 124.277557,85.687744 125.913795,92.061836 
	C129.548981,106.222984 130.364853,120.325691 123.883606,134.082809 
	C122.003502,138.073517 120.610619,142.293747 119.551582,144.990128 
	C123.384941,147.837173 126.981178,149.663406 129.298569,152.525223 
	C130.851913,154.443497 130.952637,157.813812 131.081711,160.563583 
	C131.768173,175.188934 131.892578,189.851013 132.989471,204.441895 
	C133.453384,210.612991 136.940491,215.914062 143.489807,217.781265 
	C155.719452,221.267929 168.846237,213.193924 170.875671,200.599365 
	C172.940933,187.782486 174.699265,174.887985 175.833130,161.960922 
	C176.412491,155.355713 176.980453,149.416779 182.858429,147.133316 
	C176.662857,134.553131 170.492905,122.422470 164.745117,110.094986 
	C163.163956,106.703781 162.372040,102.766937 162.034180,99.007126 
	C161.038834,87.930466 166.635208,81.674210 177.730865,80.995773 
	C180.114304,80.850037 182.514252,80.974510 185.052826,80.974510 
	C179.112305,59.840992 157.663406,43.257870 135.402649,42.039429 
	C117.639435,41.067162 105.187424,48.716118 98.817505,65.441025 
	C96.418915,71.738792 95.560989,78.623344 94.334526,86.003494 
M87.508362,127.821503 
	C87.422882,125.170723 87.192047,122.515091 87.280495,119.870125 
	C87.502762,113.223495 88.353287,106.562164 88.086411,99.941620 
	C87.313629,80.770714 90.180336,62.756653 103.111298,47.561657 
	C94.304024,43.028233 76.024994,41.154896 65.859718,43.587540 
	C54.817081,46.230145 47.265850,52.838215 44.919094,63.959160 
	C43.426674,71.031532 42.327919,78.604813 43.212063,85.683777 
	C46.047691,108.387520 51.654152,130.499619 61.404095,151.323151 
	C63.553139,155.912964 66.688614,160.203217 70.071777,164.007111 
	C73.431969,167.785172 77.010513,167.624969 80.453568,163.941559 
	C86.083229,157.918884 91.376938,151.582184 95.759125,146.580170 
	C92.787636,139.973297 90.242744,134.314926 87.508362,127.821503 
M209.015945,55.595577 
	C195.083130,40.373421 177.544113,38.084393 158.391052,40.983204 
	C158.426788,41.651001 158.372055,41.908028 158.454361,41.964157 
	C159.137329,42.429955 159.826797,42.892517 160.549042,43.293499 
	C173.867218,50.687695 183.574539,61.493320 189.177551,75.526390 
	C191.115723,80.380608 191.258163,86.129333 191.376099,91.488075 
	C191.525375,98.269600 190.236084,105.102196 190.612000,111.854599 
	C191.122559,121.025482 192.708267,130.146713 188.618683,139.080597 
	C189.670227,138.625198 190.540909,138.129486 190.973511,137.380676 
	C201.813416,118.616989 209.960754,98.811279 212.754242,77.197632 
	C213.673569,70.084488 214.958389,62.475792 209.015945,55.595577 
M101.250504,141.366409 
	C105.037292,143.120209 108.824081,144.874023 112.792847,146.712112 
	C114.855888,141.364197 116.126228,137.026627 118.133247,133.061981 
	C124.460876,120.562477 123.771439,107.672783 120.813690,94.592278 
	C119.749809,89.887306 116.461586,86.877777 111.906441,87.596962 
	C106.286049,88.484337 100.845261,90.685844 95.452286,92.661797 
	C94.562714,92.987732 93.902954,95.046547 93.838615,96.339424 
	C93.425911,104.632622 93.324181,112.941544 92.894203,121.233574 
	C92.489510,129.038147 94.883392,135.614700 101.250504,141.366409 
M183.693695,134.793533 
	C184.430984,131.093307 186.039337,127.322319 185.745529,123.705864 
	C184.786804,111.904762 183.923309,100.164314 186.015350,88.405396 
	C186.086716,88.004272 185.734406,87.527771 185.602478,87.151749 
	C170.117905,84.386757 164.557510,90.514931 169.003159,105.354240 
	C169.812866,108.056984 170.730713,110.771675 171.984543,113.288605 
	C175.543030,120.431915 179.301285,127.475716 183.693695,134.793533 
M124.261772,161.271393 
	C126.384941,158.201462 125.662224,155.406174 122.830307,153.500519 
	C119.604668,151.329910 117.905060,154.297546 116.490044,156.367523 
	C112.960289,161.531082 108.082123,164.203705 102.055527,165.183685 
	C100.472893,165.441040 98.938263,165.993607 97.185760,166.463058 
	C105.015945,171.813553 116.130699,169.814468 124.261772,161.271393 
M196.901352,154.919113 
	C194.067322,154.086899 191.223709,152.597931 188.402405,152.639023 
	C186.304916,152.669601 183.874435,154.343018 182.332794,155.981461 
	C181.715347,156.637680 182.600128,160.184494 183.625793,160.668671 
	C190.047577,163.700241 205.930649,159.625717 210.613693,154.140366 
	C206.338882,154.411621 202.064072,154.682877 196.901352,154.919113 
z"/>
<path fill="#346892" opacity="1.000000" stroke="none" 
	d="
M94.167618,85.621948 
	C95.560989,78.623344 96.418915,71.738792 98.817505,65.441025 
	C105.187424,48.716118 117.639435,41.067162 135.402649,42.039429 
	C157.663406,43.257870 179.112305,59.840992 185.052826,80.974510 
	C182.514252,80.974510 180.114304,80.850037 177.730865,80.995773 
	C166.635208,81.674210 161.038834,87.930466 162.034180,99.007126 
	C162.372040,102.766937 163.163956,106.703781 164.745117,110.094986 
	C170.492905,122.422470 176.662857,134.553131 182.858429,147.133316 
	C176.980453,149.416779 176.412491,155.355713 175.833130,161.960922 
	C174.699265,174.887985 172.940933,187.782486 170.875671,200.599365 
	C168.846237,213.193924 155.719452,221.267929 143.489807,217.781265 
	C136.940491,215.914062 133.453384,210.612991 132.989471,204.441895 
	C131.892578,189.851013 131.768173,175.188934 131.081711,160.563583 
	C130.952637,157.813812 130.851913,154.443497 129.298569,152.525223 
	C126.981178,149.663406 123.384941,147.837173 119.551582,144.990128 
	C120.610619,142.293747 122.003502,138.073517 123.883606,134.082809 
	C130.364853,120.325691 129.548981,106.222984 125.913795,92.061836 
	C124.277557,85.687744 119.193253,81.542648 112.651123,82.069733 
	C106.480003,82.566925 100.435005,84.629509 94.167618,85.621948 
z"/>
<path fill="#346892" opacity="1.000000" stroke="none" 
	d="
M87.603104,128.239014 
	C90.242744,134.314926 92.787636,139.973297 95.759125,146.580170 
	C91.376938,151.582184 86.083229,157.918884 80.453568,163.941559 
	C77.010513,167.624969 73.431969,167.785172 70.071777,164.007111 
	C66.688614,160.203217 63.553139,155.912964 61.404095,151.323151 
	C51.654152,130.499619 46.047691,108.387520 43.212063,85.683777 
	C42.327919,78.604813 43.426674,71.031532 44.919094,63.959160 
	C47.265850,52.838215 54.817081,46.230145 65.859718,43.587540 
	C76.024994,41.154896 94.304024,43.028233 103.111298,47.561657 
	C90.180336,62.756653 87.313629,80.770714 88.086411,99.941620 
	C88.353287,106.562164 87.502762,113.223495 87.280495,119.870125 
	C87.192047,122.515091 87.422882,125.170723 87.603104,128.239014 
z"/>
<path fill="#366993" opacity="1.000000" stroke="none" 
	d="
M209.262314,55.870590 
	C214.958389,62.475792 213.673569,70.084488 212.754242,77.197632 
	C209.960754,98.811279 201.813416,118.616989 190.973511,137.380676 
	C190.540909,138.129486 189.670227,138.625198 188.618683,139.080597 
	C192.708267,130.146713 191.122559,121.025482 190.612000,111.854599 
	C190.236084,105.102196 191.525375,98.269600 191.376099,91.488075 
	C191.258163,86.129333 191.115723,80.380608 189.177551,75.526390 
	C183.574539,61.493320 173.867218,50.687695 160.549042,43.293499 
	C159.826797,42.892517 159.137329,42.429955 158.454361,41.964157 
	C158.372055,41.908028 158.426788,41.651001 158.391052,40.983204 
	C177.544113,38.084393 195.083130,40.373421 209.262314,55.870590 
z"/>
<path fill="#366992" opacity="1.000000" stroke="none" 
	d="
M100.967560,141.134186 
	C94.883392,135.614700 92.489510,129.038147 92.894203,121.233574 
	C93.324181,112.941544 93.425911,104.632622 93.838615,96.339424 
	C93.902954,95.046547 94.562714,92.987732 95.452286,92.661797 
	C100.845261,90.685844 106.286049,88.484337 111.906441,87.596962 
	C116.461586,86.877777 119.749809,89.887306 120.813690,94.592278 
	C123.771439,107.672783 124.460876,120.562477 118.133247,133.061981 
	C116.126228,137.026627 114.855888,141.364197 112.792847,146.712112 
	C108.824081,144.874023 105.037292,143.120209 100.967560,141.134186 
M115.892456,96.661682 
	C116.468628,95.222260 117.044800,93.782837 117.620979,92.343407 
	C114.982498,91.874283 112.354591,91.291176 109.695480,91.044388 
	C109.233818,91.001541 108.640236,92.380043 108.107582,93.102051 
	C109.960892,94.447182 111.789154,95.829872 113.692726,97.099648 
	C114.001747,97.305786 114.644592,97.011490 115.892456,96.661682 
z"/>
<path fill="#386B94" opacity="1.000000" stroke="none" 
	d="
M183.337280,134.676117 
	C179.301285,127.475716 175.543030,120.431915 171.984543,113.288605 
	C170.730713,110.771675 169.812866,108.056984 169.003159,105.354240 
	C164.557510,90.514931 170.117905,84.386757 185.602478,87.151749 
	C185.734406,87.527771 186.086716,88.004272 186.015350,88.405396 
	C183.923309,100.164314 184.786804,111.904762 185.745529,123.705864 
	C186.039337,127.322319 184.430984,131.093307 183.337280,134.676117 
M180.330734,89.908562 
	C178.909195,89.670052 177.409668,89.036934 176.086899,89.298309 
	C174.612442,89.589653 173.252197,90.629860 171.985825,91.543182 
	C171.857010,91.636101 172.560150,93.653580 173.141815,93.813095 
	C174.756104,94.255775 176.720795,94.721825 178.143860,94.159096 
	C179.334625,93.688232 179.956787,91.779419 180.330734,89.908562 
z"/>
<path fill="#396B94" opacity="1.000000" stroke="none" 
	d="
M124.034775,161.585602 
	C116.130699,169.814468 105.015945,171.813553 97.185760,166.463058 
	C98.938263,165.993607 100.472893,165.441040 102.055527,165.183685 
	C108.082123,164.203705 112.960289,161.531082 116.490044,156.367523 
	C117.905060,154.297546 119.604668,151.329910 122.830307,153.500519 
	C125.662224,155.406174 126.384941,158.201462 124.034775,161.585602 
z"/>
<path fill="#396C94" opacity="1.000000" stroke="none" 
	d="
M197.345306,154.936615 
	C202.064072,154.682877 206.338882,154.411621 210.613617,154.139130 
	C205.930649,159.625717 190.047577,163.700241 183.625793,160.668671 
	C182.600128,160.184494 181.715347,156.637680 182.332794,155.981461 
	C183.874435,154.343018 186.304916,152.669601 188.402405,152.639023 
	C191.223709,152.597931 194.067322,154.086899 197.345306,154.936615 
z"/>
<path fill="#F7F9FB" opacity="1.000000" stroke="none" 
	d="
M115.512794,96.805099 
	C114.644592,97.011490 114.001747,97.305786 113.692726,97.099648 
	C111.789154,95.829872 109.960892,94.447182 108.107582,93.102051 
	C108.640236,92.380043 109.233818,91.001541 109.695480,91.044388 
	C112.354591,91.291176 114.982498,91.874283 117.620979,92.343414 
	C117.044800,93.782837 116.468628,95.222260 115.512794,96.805099 
z"/>
<path fill="#EDF2F5" opacity="1.000000" stroke="none" 
	d="
M180.580734,90.207962 
	C179.956787,91.779419 179.334625,93.688232 178.143860,94.159096 
	C176.720795,94.721825 174.756104,94.255775 173.141815,93.813095 
	C172.560150,93.653580 171.857010,91.636101 171.985825,91.543182 
	C173.252197,90.629860 174.612442,89.589653 176.086899,89.298309 
	C177.409668,89.036934 178.909195,89.670052 180.580734,90.207962 
z"/>
</svg>