<svg version="1.1" id="Layer_1" xmlns="http://www.w3.org/2000/svg" xmlns:xlink="http://www.w3.org/1999/xlink" x="0px" y="0px"
	 width="100%" viewBox="0 0 256 256" enable-background="new 0 0 256 256" xml:space="preserve">
<path fill="#242A39" opacity="1.000000" stroke="none" 
	d="
M1.000000,212.000000 
	C1.000000,156.979111 1.000000,101.958214 1.345560,46.378487 
	C2.123231,45.155544 2.728781,44.547050 2.962189,43.819218 
	C9.479450,23.496389 22.906466,10.020719 43.057411,3.117747 
	C44.151680,2.742890 45.024239,1.720805 46.000000,1.000000 
	C101.020897,1.000000 156.041794,1.000000 211.621490,1.345557 
	C212.685089,2.081611 213.132050,2.658706 213.703003,2.835613 
	C233.736710,9.042961 247.204239,22.085264 254.449921,41.712940 
	C254.907822,42.953384 256.132202,43.910873 257.000000,45.000000 
	C257.000000,100.687561 257.000000,156.375122 256.657043,212.611588 
	C255.711319,214.108841 254.906967,214.984634 254.535645,216.016281 
	C247.776154,234.795441 235.071701,247.605713 216.298660,254.444550 
	C215.053986,254.897995 214.092957,256.130066 213.000000,257.000000 
	C157.312439,257.000000 101.624878,257.000000 45.388439,256.657043 
	C43.738560,255.649429 42.711128,254.783463 41.525574,254.350189 
	C22.403645,247.361954 9.668774,234.197250 3.117967,214.949081 
	C2.744854,213.852768 1.720995,212.977921 1.000000,212.000000 
M76.663345,27.855440 
	C68.496658,30.040840 63.080666,35.661411 61.232632,43.402046 
	C59.331932,51.363274 58.578495,59.782421 58.681835,67.984070 
	C58.776909,75.529686 60.678482,83.052544 61.825996,90.869873 
	C60.651466,91.283264 59.384686,91.613747 58.217644,92.158051 
	C48.459435,96.709381 37.980267,100.192261 29.123753,106.102943 
	C8.947282,119.568344 8.958194,139.404510 29.036955,152.911713 
	C37.331985,158.491882 47.125282,161.853333 56.268753,166.156754 
	C58.155033,167.044540 60.181679,167.634109 62.201225,168.382492 
	C61.859451,169.964920 61.608559,171.094955 61.371746,172.227951 
	C58.945251,183.837036 57.239586,195.459167 58.896370,207.396713 
	C61.663898,227.337418 75.921448,236.748535 94.643867,229.813721 
	C102.157684,227.030579 109.047394,222.320297 115.830727,217.889435 
	C120.625961,214.757187 124.764648,210.619797 129.210434,206.919479 
	C130.681870,208.256485 131.895706,209.394913 133.146896,210.490677 
	C143.726761,219.756516 154.664886,228.424255 168.896988,231.452103 
	C181.152359,234.059402 191.133286,229.066895 196.171402,217.640579 
	C200.041321,208.863724 200.542923,199.575668 199.456909,190.210205 
	C198.602615,182.842926 197.313507,175.526077 196.201431,168.078888 
	C199.368698,167.026276 202.395157,166.130295 205.341736,165.021988 
	C217.406235,160.484100 229.209534,155.420288 237.711090,145.153229 
	C246.121185,134.996597 246.044205,124.006607 237.676422,113.821465 
	C230.575485,105.178299 220.922592,100.305099 210.863052,96.153519 
	C205.993927,94.144020 200.965805,92.519836 195.887390,90.676834 
	C196.180527,89.234230 196.402100,88.111763 196.637115,86.992111 
	C199.142441,75.057022 200.948166,63.106510 199.035797,50.845119 
	C195.991516,31.326214 181.529266,22.238129 163.118561,29.274220 
	C155.923126,32.024117 149.270294,36.435188 142.780945,40.712593 
	C137.843353,43.967182 133.554367,48.205811 129.855637,51.276920 
	C119.804176,44.465828 110.461052,37.545925 100.530975,31.607525 
	C93.613144,27.470507 85.723358,25.696283 76.663345,27.855440 
z"/>
<path fill="#000000" opacity="1.000000" stroke="none" 
	d="
M45.531342,1.000000 
	C45.024239,1.720805 44.151680,2.742890 43.057411,3.117747 
	C22.906466,10.020719 9.479450,23.496389 2.962189,43.819218 
	C2.728781,44.547050 2.123231,45.155544 1.345560,45.909828 
	C1.000000,31.073294 1.000000,16.146585 1.000000,1.000000 
	C15.686830,1.000000 30.374756,1.000000 45.531342,1.000000 
z"/>
<path fill="#000000" opacity="1.000000" stroke="none" 
	d="
M257.000000,44.531342 
	C256.132202,43.910873 254.907822,42.953384 254.449921,41.712940 
	C247.204239,22.085264 233.736710,9.042961 213.703003,2.835613 
	C213.132050,2.658706 212.685089,2.081611 212.090149,1.345557 
	C226.925888,1.000000 241.851761,1.000000 257.000000,1.000000 
	C257.000000,15.353463 257.000000,29.708073 257.000000,44.531342 
z"/>
<path fill="#000000" opacity="1.000000" stroke="none" 
	d="
M1.000000,212.468658 
	C1.720995,212.977921 2.744854,213.852768 3.117967,214.949081 
	C9.668774,234.197250 22.403645,247.361954 41.525574,254.350189 
	C42.711128,254.783463 43.738560,255.649429 44.919781,256.657043 
	C30.405807,257.000000 15.811616,257.000000 1.000000,257.000000 
	C1.000000,242.313156 1.000000,227.625229 1.000000,212.468658 
z"/>
<path fill="#000000" opacity="1.000000" stroke="none" 
	d="
M213.468658,257.000000 
	C214.092957,256.130066 215.053986,254.897995 216.298660,254.444550 
	C235.071701,247.605713 247.776154,234.795441 254.535645,216.016281 
	C254.906967,214.984634 255.711319,214.108841 256.657043,213.080246 
	C257.000000,227.593369 257.000000,242.186722 257.000000,257.000000 
	C242.646515,257.000000 228.291916,257.000000 213.468658,257.000000 
z"/>
<path fill="#60D7F7" opacity="1.000000" stroke="none" 
	d="
M77.071655,27.761490 
	C85.723358,25.696283 93.613144,27.470507 100.530975,31.607525 
	C110.461052,37.545925 119.804176,44.465828 129.855637,51.276920 
	C133.554367,48.205811 137.843353,43.967182 142.780945,40.712593 
	C149.270294,36.435188 155.923126,32.024117 163.118561,29.274220 
	C181.529266,22.238129 195.991516,31.326214 199.035797,50.845119 
	C200.948166,63.106510 199.142441,75.057022 196.637115,86.992111 
	C196.402100,88.111763 196.180527,89.234230 195.887390,90.676834 
	C200.965805,92.519836 205.993927,94.144020 210.863052,96.153519 
	C220.922592,100.305099 230.575485,105.178299 237.676422,113.821465 
	C246.044205,124.006607 246.121185,134.996597 237.711090,145.153229 
	C229.209534,155.420288 217.406235,160.484100 205.341736,165.021988 
	C202.395157,166.130295 199.368698,167.026276 196.201431,168.078888 
	C197.313507,175.526077 198.602615,182.842926 199.456909,190.210205 
	C200.542923,199.575668 200.041321,208.863724 196.171402,217.640579 
	C191.133286,229.066895 181.152359,234.059402 168.896988,231.452103 
	C154.664886,228.424255 143.726761,219.756516 133.146896,210.490677 
	C131.895706,209.394913 130.681870,208.256485 129.210434,206.919479 
	C124.764648,210.619797 120.625961,214.757187 115.830727,217.889435 
	C109.047394,222.320297 102.157684,227.030579 94.643867,229.813721 
	C75.921448,236.748535 61.663898,227.337418 58.896370,207.396713 
	C57.239586,195.459167 58.945251,183.837036 61.371746,172.227951 
	C61.608559,171.094955 61.859451,169.964920 62.201225,168.382492 
	C60.181679,167.634109 58.155033,167.044540 56.268753,166.156754 
	C47.125282,161.853333 37.331985,158.491882 29.036955,152.911713 
	C8.958194,139.404510 8.947282,119.568344 29.123753,106.102943 
	C37.980267,100.192261 48.459435,96.709381 58.217644,92.158051 
	C59.384686,91.613747 60.651466,91.283264 61.825996,90.869873 
	C60.678482,83.052544 58.776909,75.529686 58.681835,67.984070 
	C58.578495,59.782421 59.331932,51.363274 61.232632,43.402046 
	C63.080666,35.661411 68.496658,30.040840 77.071655,27.761490 
M150.295319,165.399185 
	C156.747421,154.378418 163.280975,143.403580 169.549881,132.279572 
	C170.345490,130.867813 170.458084,128.287628 169.695770,126.906143 
	C163.924286,116.446838 157.961548,106.087181 151.761337,95.876869 
	C150.863190,94.397812 148.398178,93.083656 146.629959,93.046692 
	C134.846786,92.800385 123.054085,92.821854 111.269669,93.038559 
	C109.615623,93.068985 107.280930,94.213554 106.463867,95.567902 
	C100.207520,105.938301 94.173622,116.446556 88.296806,127.037498 
	C87.589020,128.313049 87.631630,130.671005 88.345840,131.964340 
	C94.120850,142.421982 100.035995,152.807434 106.198715,163.040039 
	C107.097885,164.533020 109.522545,165.940460 111.259483,165.962570 
	C124.035805,166.125320 136.816757,165.925659 150.295319,165.399185 
M89.497162,37.694622 
	C79.131134,35.387894 72.999596,37.930702 70.205292,46.560524 
	C65.678513,60.540867 68.482971,74.315086 71.696045,88.038017 
	C81.992958,86.594276 91.673424,85.266487 101.337944,83.831398 
	C102.203369,83.702896 103.187111,83.054077 103.741684,82.351517 
	C109.780350,74.701523 115.744308,66.992546 121.885193,59.098347 
	C112.502296,50.280556 102.831184,41.998596 89.497162,37.694622 
M139.524628,55.982594 
	C138.219208,56.968159 136.913773,57.953728 135.828323,58.773224 
	C142.265945,66.955544 148.113159,74.408592 153.996582,81.832947 
	C154.589172,82.580742 155.330734,83.620453 156.121201,83.739258 
	C166.093704,85.238167 176.087891,86.592667 186.331543,88.019569 
	C189.418747,75.654381 191.443146,63.427986 189.047974,50.893806 
	C186.735611,38.792919 179.323380,34.302479 167.630157,38.026466 
	C164.021439,39.175751 160.373047,40.670216 157.245239,42.758965 
	C151.316757,46.718021 145.751434,51.220894 139.524628,55.982594 
M72.904549,121.623573 
	C70.218651,114.716888 67.532761,107.810196 64.683701,100.483910 
	C51.558628,104.532799 38.877388,108.839729 29.026045,118.699913 
	C22.671036,125.060631 21.982244,132.365616 27.592196,138.706589 
	C37.469147,149.870590 50.988419,154.308472 64.713165,158.549805 
	C67.696465,150.798447 69.984550,143.486969 73.303505,136.677963 
	C75.796471,131.563522 76.290451,127.102859 72.904549,121.623573 
M120.587921,201.177612 
	C120.416084,199.846588 120.705269,198.161713 119.998695,197.241104 
	C114.837029,190.515884 109.493866,183.929153 104.154327,177.342224 
	C103.462593,176.488876 102.539497,175.385803 101.595100,175.241974 
	C91.778893,173.747025 81.936363,172.424973 71.728165,171.002975 
	C68.733459,183.082382 66.583488,195.111008 68.893135,207.468384 
	C71.363480,220.685593 79.082085,225.150482 91.684280,220.683304 
	C94.949188,219.525986 98.274239,218.136673 101.075134,216.152893 
	C107.572548,211.550964 113.766823,206.521042 120.587921,201.177612 
M187.064713,214.325867 
	C192.743774,199.728561 189.460846,185.401718 186.436737,170.992554 
	C176.076889,172.438354 166.391235,173.770523 156.716690,175.178986 
	C155.978577,175.286438 155.115234,175.772232 154.653809,176.354523 
	C148.499176,184.121445 142.405930,191.937012 136.152817,199.925140 
	C145.718567,208.861526 155.482010,217.355270 168.279099,221.253662 
	C176.980896,223.904480 182.058151,222.099869 187.064713,214.325867 
M185.455063,120.971657 
	C184.332214,124.051743 181.584061,127.652214 182.374130,130.119827 
	C185.431244,139.667938 189.616074,148.854996 193.452499,158.353943 
	C195.410599,157.824570 197.190201,157.456482 198.892181,156.865005 
	C209.917542,153.033524 220.774490,148.835953 229.149734,140.227325 
	C234.917938,134.298386 236.017822,127.684082 231.496628,121.816017 
	C221.835403,109.276756 207.555389,104.966904 193.242462,100.537354 
	C190.589905,107.587967 188.200455,113.939178 185.455063,120.971657 
M137.430679,76.086838 
	C134.689117,72.905273 131.947556,69.723709 128.893967,66.180031 
	C124.160492,71.930954 120.019012,76.962639 115.413177,82.558487 
	C124.848030,82.558487 133.278778,82.558487 142.512680,82.558487 
	C140.678711,80.199524 139.292023,78.415871 137.430679,76.086838 
M138.365402,181.820892 
	C139.601044,180.179153 140.836685,178.537415 142.383942,176.481659 
	C133.142899,176.481659 124.732780,176.481659 115.302193,176.481659 
	C120.170746,182.270172 124.444061,187.350967 129.009033,192.778519 
	C132.341629,188.892288 135.131882,185.638504 138.365402,181.820892 
M171.799484,95.780258 
	C169.046692,95.369247 166.293900,94.958244 162.772629,94.432503 
	C167.412323,102.461555 171.643463,109.783585 176.427353,118.062187 
	C179.033081,110.868263 181.278687,104.668533 183.717514,97.935349 
	C179.428558,97.155235 176.040710,96.539024 171.799484,95.780258 
M89.208786,154.257370 
	C86.893036,150.141998 84.577286,146.026611 81.685226,140.887085 
	C79.034233,148.145294 76.773117,154.336075 74.278572,161.165924 
	C81.615822,162.411499 88.031021,163.500549 95.478218,164.764786 
	C93.116623,160.783188 91.363297,157.827118 89.208786,154.257370 
M179.155518,148.384033 
	C178.287003,146.206451 177.418488,144.028870 176.278946,141.171753 
	C171.573257,149.343414 167.398453,156.593155 162.668869,164.806290 
	C170.135056,163.492233 176.684006,162.339615 183.680069,161.108292 
	C182.089371,156.560852 180.783630,152.828018 179.155518,148.384033 
M88.910248,105.412865 
	C90.897736,102.021820 92.885216,98.630768 95.468483,94.223190 
	C87.909973,95.538017 81.365700,96.676414 74.237839,97.916328 
	C76.803329,104.870743 79.053497,110.970383 81.678619,118.086449 
	C84.343361,113.399559 86.435669,109.719498 88.910248,105.412865 
z"/>
<path fill="#252C3B" opacity="1.000000" stroke="none" 
	d="
M149.945770,165.619659 
	C136.816757,165.925659 124.035805,166.125320 111.259483,165.962570 
	C109.522545,165.940460 107.097885,164.533020 106.198715,163.040039 
	C100.035995,152.807434 94.120850,142.421982 88.345840,131.964340 
	C87.631630,130.671005 87.589020,128.313049 88.296806,127.037498 
	C94.173622,116.446556 100.207520,105.938301 106.463867,95.567902 
	C107.280930,94.213554 109.615623,93.068985 111.269669,93.038559 
	C123.054085,92.821854 134.846786,92.800385 146.629959,93.046692 
	C148.398178,93.083656 150.863190,94.397812 151.761337,95.876869 
	C157.961548,106.087181 163.924286,116.446838 169.695770,126.906143 
	C170.458084,128.287628 170.345490,130.867813 169.549881,132.279572 
	C163.280975,143.403580 156.747421,154.378418 149.945770,165.619659 
M147.628464,121.261986 
	C142.571671,112.083817 134.420578,107.694214 125.613815,109.406456 
	C116.809456,111.118233 110.170563,117.889046 108.943939,126.407562 
	C107.735252,134.801544 111.641014,142.996857 118.838402,147.168732 
	C126.192810,151.431641 135.136871,150.748810 141.735062,145.420731 
	C148.676468,139.815506 150.897614,131.421066 147.628464,121.261986 
z"/>
<path fill="#252B3A" opacity="1.000000" stroke="none" 
	d="
M89.896027,37.813393 
	C102.831184,41.998596 112.502296,50.280556 121.885193,59.098347 
	C115.744308,66.992546 109.780350,74.701523 103.741684,82.351517 
	C103.187111,83.054077 102.203369,83.702896 101.337944,83.831398 
	C91.673424,85.266487 81.992958,86.594276 71.696045,88.038017 
	C68.482971,74.315086 65.678513,60.540867 70.205292,46.560524 
	C72.999596,37.930702 79.131134,35.387894 89.896027,37.813393 
z"/>
<path fill="#252B3A" opacity="1.000000" stroke="none" 
	d="
M139.779938,55.740219 
	C145.751434,51.220894 151.316757,46.718021 157.245239,42.758965 
	C160.373047,40.670216 164.021439,39.175751 167.630157,38.026466 
	C179.323380,34.302479 186.735611,38.792919 189.047974,50.893806 
	C191.443146,63.427986 189.418747,75.654381 186.331543,88.019569 
	C176.087891,86.592667 166.093704,85.238167 156.121201,83.739258 
	C155.330734,83.620453 154.589172,82.580742 153.996582,81.832947 
	C148.113159,74.408592 142.265945,66.955544 135.828323,58.773224 
	C136.913773,57.953728 138.219208,56.968159 139.779938,55.740219 
z"/>
<path fill="#252B3A" opacity="1.000000" stroke="none" 
	d="
M73.013779,121.992996 
	C76.290451,127.102859 75.796471,131.563522 73.303505,136.677963 
	C69.984550,143.486969 67.696465,150.798447 64.713165,158.549805 
	C50.988419,154.308472 37.469147,149.870590 27.592196,138.706589 
	C21.982244,132.365616 22.671036,125.060631 29.026045,118.699913 
	C38.877388,108.839729 51.558628,104.532799 64.683701,100.483910 
	C67.532761,107.810196 70.218651,114.716888 73.013779,121.992996 
z"/>
<path fill="#252B3A" opacity="1.000000" stroke="none" 
	d="
M120.335953,201.421112 
	C113.766823,206.521042 107.572548,211.550964 101.075134,216.152893 
	C98.274239,218.136673 94.949188,219.525986 91.684280,220.683304 
	C79.082085,225.150482 71.363480,220.685593 68.893135,207.468384 
	C66.583488,195.111008 68.733459,183.082382 71.728165,171.002975 
	C81.936363,172.424973 91.778893,173.747025 101.595100,175.241974 
	C102.539497,175.385803 103.462593,176.488876 104.154327,177.342224 
	C109.493866,183.929153 114.837029,190.515884 119.998695,197.241104 
	C120.705269,198.161713 120.416084,199.846588 120.335953,201.421112 
z"/>
<path fill="#252B3A" opacity="1.000000" stroke="none" 
	d="
M186.925156,214.680969 
	C182.058151,222.099869 176.980896,223.904480 168.279099,221.253662 
	C155.482010,217.355270 145.718567,208.861526 136.152817,199.925140 
	C142.405930,191.937012 148.499176,184.121445 154.653809,176.354523 
	C155.115234,175.772232 155.978577,175.286438 156.716690,175.178986 
	C166.391235,173.770523 176.076889,172.438354 186.436737,170.992554 
	C189.460846,185.401718 192.743774,199.728561 186.925156,214.680969 
z"/>
<path fill="#252B3A" opacity="1.000000" stroke="none" 
	d="
M185.633041,120.631020 
	C188.200455,113.939178 190.589905,107.587967 193.242462,100.537354 
	C207.555389,104.966904 221.835403,109.276756 231.496628,121.816017 
	C236.017822,127.684082 234.917938,134.298386 229.149734,140.227325 
	C220.774490,148.835953 209.917542,153.033524 198.892181,156.865005 
	C197.190201,157.456482 195.410599,157.824570 193.452499,158.353943 
	C189.616074,148.854996 185.431244,139.667938 182.374130,130.119827 
	C181.584061,127.652214 184.332214,124.051743 185.633041,120.631020 
z"/>
<path fill="#273343" opacity="1.000000" stroke="none" 
	d="
M137.667999,76.359528 
	C139.292023,78.415871 140.678711,80.199524 142.512680,82.558487 
	C133.278778,82.558487 124.848030,82.558487 115.413177,82.558487 
	C120.019012,76.962639 124.160492,71.930954 128.893967,66.180031 
	C131.947556,69.723709 134.689117,72.905273 137.667999,76.359528 
z"/>
<path fill="#273242" opacity="1.000000" stroke="none" 
	d="
M138.143768,182.102814 
	C135.131882,185.638504 132.341629,188.892288 129.009033,192.778519 
	C124.444061,187.350967 120.170746,182.270172 115.302193,176.481659 
	C124.732780,176.481659 133.142899,176.481659 142.383942,176.481659 
	C140.836685,178.537415 139.601044,180.179153 138.143768,182.102814 
z"/>
<path fill="#262F3F" opacity="1.000000" stroke="none" 
	d="
M172.226181,95.851532 
	C176.040710,96.539024 179.428558,97.155235 183.717514,97.935349 
	C181.278687,104.668533 179.033081,110.868263 176.427353,118.062187 
	C171.643463,109.783585 167.412323,102.461555 162.772629,94.432503 
	C166.293900,94.958244 169.046692,95.369247 172.226181,95.851532 
z"/>
<path fill="#262F3E" opacity="1.000000" stroke="none" 
	d="
M89.409378,154.564209 
	C91.363297,157.827118 93.116623,160.783188 95.478218,164.764786 
	C88.031021,163.500549 81.615822,162.411499 74.278572,161.165924 
	C76.773117,154.336075 79.034233,148.145294 81.685226,140.887085 
	C84.577286,146.026611 86.893036,150.141998 89.409378,154.564209 
z"/>
<path fill="#262F3E" opacity="1.000000" stroke="none" 
	d="
M179.316711,148.739624 
	C180.783630,152.828018 182.089371,156.560852 183.680069,161.108292 
	C176.684006,162.339615 170.135056,163.492233 162.668869,164.806290 
	C167.398453,156.593155 171.573257,149.343414 176.278946,141.171753 
	C177.418488,144.028870 178.287003,146.206451 179.316711,148.739624 
z"/>
<path fill="#262F3E" opacity="1.000000" stroke="none" 
	d="
M88.719116,105.726151 
	C86.435669,109.719498 84.343361,113.399559 81.678619,118.086449 
	C79.053497,110.970383 76.803329,104.870743 74.237839,97.916328 
	C81.365700,96.676414 87.909973,95.538017 95.468483,94.223190 
	C92.885216,98.630768 90.897736,102.021820 88.719116,105.726151 
z"/>
<path fill="#60D8F9" opacity="1.000000" stroke="none" 
	d="
M147.780075,121.631851 
	C150.897614,131.421066 148.676468,139.815506 141.735062,145.420731 
	C135.136871,150.748810 126.192810,151.431641 118.838402,147.168732 
	C111.641014,142.996857 107.735252,134.801544 108.943939,126.407562 
	C110.170563,117.889046 116.809456,111.118233 125.613815,109.406456 
	C134.420578,107.694214 142.571671,112.083817 147.780075,121.631851 
z"/>
</svg>