<svg version="1.1" id="Layer_1" xmlns="http://www.w3.org/2000/svg" xmlns:xlink="http://www.w3.org/1999/xlink" x="0px" y="0px"
	 width="100%" viewBox="0 0 256 256" enable-background="new 0 0 256 256" xml:space="preserve">
<path fill="#242938" opacity="1.000000" stroke="none" 
	d="
M257.000000,45.000000 
	C257.000000,100.687561 257.000000,156.375122 256.654358,212.604309 
	C255.709534,214.094543 254.911240,214.971573 254.540649,216.002365 
	C247.783722,234.796921 235.075012,247.616318 216.284470,254.451111 
	C215.044632,254.902069 214.088242,256.132263 213.000000,257.000000 
	C157.312439,257.000000 101.624878,257.000000 45.395695,256.654327 
	C43.752548,255.647659 42.723568,254.787994 41.538666,254.355331 
	C22.400181,247.367203 9.655538,234.196518 3.110970,214.927826 
	C2.741003,213.838547 1.718695,212.970840 1.000000,212.000000 
	C1.000000,156.979111 1.000000,101.958214 1.349207,46.386753 
	C2.088797,45.334061 2.665708,44.889965 2.842614,44.321415 
	C9.310169,23.535490 22.919756,9.827037 43.562263,2.997938 
	C44.493271,2.689935 45.192703,1.681951 46.000000,1.000000 
	C101.020897,1.000000 156.041794,1.000000 211.613220,1.349199 
	C212.666397,2.088906 213.111130,2.667788 213.680054,2.842693 
	C233.756332,9.014659 247.204010,22.090410 254.455917,41.727505 
	C254.912186,42.963013 256.134216,43.915722 257.000000,45.000000 
M41.052902,76.502029 
	C41.053410,115.150642 41.022751,153.799301 41.071423,192.447861 
	C41.088352,205.892303 51.008366,215.906540 64.382133,215.923935 
	C107.195427,215.979660 150.008911,215.985840 192.822174,215.919159 
	C205.901779,215.898788 215.903931,205.848587 215.922318,192.740433 
	C215.982391,149.927139 215.980988,107.113670 215.923309,64.300369 
	C215.905609,51.168163 205.935226,41.102978 192.865829,41.082012 
	C149.885986,41.013069 106.905853,41.005981 63.926052,41.087498 
	C51.136932,41.111752 41.245583,51.194550 41.064053,64.008820 
	C41.009785,67.839607 41.053894,71.671799 41.052902,76.502029 
z"/>
<path fill="#000000" opacity="1.000000" stroke="none" 
	d="
M45.531342,1.000000 
	C45.192703,1.681951 44.493271,2.689935 43.562263,2.997938 
	C22.919756,9.827037 9.310169,23.535490 2.842614,44.321415 
	C2.665708,44.889965 2.088797,45.334061 1.349207,45.918095 
	C1.000000,31.073294 1.000000,16.146585 1.000000,1.000000 
	C15.686830,1.000000 30.374756,1.000000 45.531342,1.000000 
z"/>
<path fill="#000000" opacity="1.000000" stroke="none" 
	d="
M257.000000,44.531342 
	C256.134216,43.915722 254.912186,42.963013 254.455917,41.727505 
	C247.204010,22.090410 233.756332,9.014659 213.680054,2.842693 
	C213.111130,2.667788 212.666397,2.088906 212.081879,1.349199 
	C226.925888,1.000000 241.851761,1.000000 257.000000,1.000000 
	C257.000000,15.353463 257.000000,29.708073 257.000000,44.531342 
z"/>
<path fill="#000000" opacity="1.000000" stroke="none" 
	d="
M1.000000,212.468658 
	C1.718695,212.970840 2.741003,213.838547 3.110970,214.927826 
	C9.655538,234.196518 22.400181,247.367203 41.538666,254.355331 
	C42.723568,254.787994 43.752548,255.647659 44.927036,256.654327 
	C30.405807,257.000000 15.811616,257.000000 1.000000,257.000000 
	C1.000000,242.313156 1.000000,227.625229 1.000000,212.468658 
z"/>
<path fill="#000000" opacity="1.000000" stroke="none" 
	d="
M213.468658,257.000000 
	C214.088242,256.132263 215.044632,254.902069 216.284470,254.451111 
	C235.075012,247.616318 247.783722,234.796921 254.540649,216.002365 
	C254.911240,214.971573 255.709534,214.094543 256.654358,213.072968 
	C257.000000,227.593369 257.000000,242.186722 257.000000,257.000000 
	C242.646515,257.000000 228.291916,257.000000 213.468658,257.000000 
z"/>
<path fill="#017ACD" opacity="1.000000" stroke="none" 
	d="
M41.052917,76.002686 
	C41.053894,71.671799 41.009785,67.839607 41.064053,64.008820 
	C41.245583,51.194550 51.136932,41.111752 63.926052,41.087498 
	C106.905853,41.005981 149.885986,41.013069 192.865829,41.082012 
	C205.935226,41.102978 215.905609,51.168163 215.923309,64.300369 
	C215.980988,107.113670 215.982391,149.927139 215.922318,192.740433 
	C215.903931,205.848587 205.901779,215.898788 192.822174,215.919159 
	C150.008911,215.985840 107.195427,215.979660 64.382133,215.923935 
	C51.008366,215.906540 41.088352,205.892303 41.071423,192.447861 
	C41.022751,153.799301 41.053410,115.150642 41.052917,76.002686 
M152.528763,133.208618 
	C147.788712,145.652817 151.442123,156.567245 162.792633,163.250656 
	C166.078445,165.185394 169.668198,166.600571 173.099823,168.292068 
	C176.082565,169.762314 179.487122,170.790390 181.866821,172.941437 
	C183.820984,174.707840 185.794510,178.018448 185.462051,180.311508 
	C185.125198,182.634842 182.344803,185.560837 179.972961,186.442261 
	C174.205490,188.585602 168.443298,187.657272 163.709717,183.259720 
	C161.910126,181.587891 160.333450,179.676117 158.537689,177.747513 
	C154.172058,180.341873 149.964325,182.842392 145.777573,185.330460 
	C153.270615,198.773331 168.065567,204.720688 183.901627,201.059875 
	C197.026001,198.025894 203.595200,188.736481 202.039948,175.397247 
	C201.183838,168.054550 197.328720,162.573608 191.014191,159.069077 
	C184.913757,155.683350 178.499680,152.866211 172.259567,149.727356 
	C168.944107,148.059647 166.110901,145.621826 167.001419,141.604980 
	C167.466980,139.505020 169.438583,136.359131 171.021988,136.173309 
	C174.345734,135.783157 177.982101,136.678253 181.249146,137.768097 
	C182.866531,138.307632 183.949768,140.448334 185.345474,141.940292 
	C189.574524,139.100998 193.503754,136.463013 197.329620,133.894424 
	C188.660950,116.135986 159.669937,117.473068 152.528763,133.208618 
M96.502357,121.882805 
	C91.045013,121.882805 85.587669,121.882805 79.889969,121.882805 
	C79.889969,126.868858 79.889969,131.316589 79.889969,136.313644 
	C87.338348,136.313644 94.592056,136.313644 102.334656,136.313644 
	C102.334656,158.098373 102.334656,179.340073 102.334656,200.805450 
	C107.932495,200.805450 113.017235,200.805450 118.826965,200.805450 
	C118.826965,179.239319 118.826965,157.893402 118.826965,136.162354 
	C126.654137,136.162354 133.765869,136.162354 141.089661,136.162354 
	C141.089661,131.303650 141.089661,126.848869 141.089661,121.882805 
	C126.419846,121.882805 111.960800,121.882805 96.502357,121.882805 
z"/>
<path fill="#FAFDFE" opacity="1.000000" stroke="none" 
	d="
M152.703339,132.872070 
	C159.669937,117.473068 188.660950,116.135986 197.329620,133.894424 
	C193.503754,136.463013 189.574524,139.100998 185.345474,141.940292 
	C183.949768,140.448334 182.866531,138.307632 181.249146,137.768097 
	C177.982101,136.678253 174.345734,135.783157 171.021988,136.173309 
	C169.438583,136.359131 167.466980,139.505020 167.001419,141.604980 
	C166.110901,145.621826 168.944107,148.059647 172.259567,149.727356 
	C178.499680,152.866211 184.913757,155.683350 191.014191,159.069077 
	C197.328720,162.573608 201.183838,168.054550 202.039948,175.397247 
	C203.595200,188.736481 197.026001,198.025894 183.901627,201.059875 
	C168.065567,204.720688 153.270615,198.773331 145.777573,185.330460 
	C149.964325,182.842392 154.172058,180.341873 158.537689,177.747513 
	C160.333450,179.676117 161.910126,181.587891 163.709717,183.259720 
	C168.443298,187.657272 174.205490,188.585602 179.972961,186.442261 
	C182.344803,185.560837 185.125198,182.634842 185.462051,180.311508 
	C185.794510,178.018448 183.820984,174.707840 181.866821,172.941437 
	C179.487122,170.790390 176.082565,169.762314 173.099823,168.292068 
	C169.668198,166.600571 166.078445,165.185394 162.792633,163.250656 
	C151.442123,156.567245 147.788712,145.652817 152.703339,132.872070 
z"/>
<path fill="#F9FCFE" opacity="1.000000" stroke="none" 
	d="
M97.002060,121.882805 
	C111.960800,121.882805 126.419846,121.882805 141.089661,121.882805 
	C141.089661,126.848869 141.089661,131.303650 141.089661,136.162354 
	C133.765869,136.162354 126.654137,136.162354 118.826965,136.162354 
	C118.826965,157.893402 118.826965,179.239319 118.826965,200.805450 
	C113.017235,200.805450 107.932495,200.805450 102.334656,200.805450 
	C102.334656,179.340073 102.334656,158.098373 102.334656,136.313644 
	C94.592056,136.313644 87.338348,136.313644 79.889969,136.313644 
	C79.889969,131.316589 79.889969,126.868858 79.889969,121.882805 
	C85.587669,121.882805 91.045013,121.882805 97.002060,121.882805 
z"/>
</svg>